/* XPM */
static char *dframeITL[] = {
/* columns rows colors chars-per-pixel */
"26 26 3 1",
"  c #5F5F5F5F5F5F",
". c #BEBEBEBEBEBE",
"X c #FFFFFFFFFFFF",
/* pixels */
"XXXXXXXXXXXXXXXXXXXXXXXXX ",
"XXXXXXXXXXXXXXXXXXXXXXXXX ",
"XX....................... ",
"XX....................... ",
"XX....................... ",
"XX...                     ",
"XX... XXXXXXXXXXXXXXXXXXX ",
"XX... X.................. ",
"XX... X.................. ",
"XX... X.................. ",
"XX... X.................. ",
"XX... X.................. ",
"XX... X.................. ",
"XX... X...XXXXXXXXXXX ... ",
"XX... X...X.......... ... ",
"XX... X...X.......... ... ",
"XX... X...X.......... ... ",
"XX... X...X.......... ... ",
"XX... X...X           ... ",
"XX... X.................. ",
"XX... X.................. ",
"XX... X.................. ",
"XX... X.................. ",
"XX... X.................. ",
"XX... X.................. ",
"      X                   "
};
