/* XPM */
static char * dframeABL_xpm[] = {
"27 27 5 1",
" 	c None",
".	c #3E6D92",
"+	c #F4F4F4",
"@	c #32A1FF",
"#	c #218CE5",
"......+++++++++++++++++++++",
"@@@@@.+++++++++++++++++++++",
"@@###.+++++++++++++++++++++",
"@@###.+++++++++++++++++++++",
"@@###.+++++++++++++++++++++",
"@@###.+++++++++++++++++++++",
"@@###.+++++++++++++++++++++",
"@@###.+++++++++++++++++++++",
"@@###.+++++++++++++++++++++",
"@@###.+++++++++++++++++++++",
"@@###.+++++++++++++++++++++",
"@@###.+++++++++++++++++++++",
"@@###.+++++++++++++++++++++",
"@@###.+++++++++++++++++++++",
"@@###.+++++++++++++++++++++",
"@@###.+++++++++++++++++++++",
"@@###.+++++++++++++++++++++",
"@@###.+++++++++++++++++++++",
"@@###.+++++++++++++++++++++",
"@@###.+++++++++++++++++++++",
"@@###.+++++++++++++++++++++",
"@@###.@@@@@@@@@@@@@@@@@@@@@",
"@@#######################.@",
"@@#######################.@",
"@@#######################.@",
"@@........................@",
"@.........................@"};
