/* XPM */
static char * dframeABR_xpm[] = {
"27 26 29 1",
" 	c None",
".	c #F4F4F4",
"+	c #AFACA8",
"@	c #FFFFFF",
"#	c #E7E5E2",
"$	c #BBB8B2",
"%	c #4D4D4D",
"&	c #FCFCFC",
"*	c #32A1FF",
"=	c #218CE5",
"-	c #3E6D92",
";	c #BCBCBB",
">	c #9F9F9F",
",	c #E6E4E1",
"'	c #B9B9B9",
")	c #BCBCBC",
"!	c #FEFEFE",
"~	c #F5F4F3",
"{	c #E4E2DF",
"]	c #B2B2B2",
"^	c #B4B4B4",
"/	c #F7F7F6",
"(	c #E1E0DD",
"_	c #B9B8B8",
":	c #F7F7F7",
"<	c #F9F9F9",
"[	c #E7E6E3",
"}	c #E9E7E4",
"|	c #F8F8F7",
".....+@###########$%&******",
".....+@###########$%&*===--",
".....+@###########$%&*===--",
".....+@$$$$$$$$$$$$%&*===--",
".....+%%%%%%%%%%%%%%&*===--",
".....+@@@@@@@@@@@@@%&*===--",
".....+@###########$%&*===--",
".....+@###########$%&*===--",
".....+@###########$%&*===--",
".....+@###########$%&*===--",
".....+@##;>>>>>;##$%&*===--",
".....+@##,'>>>)!~#$%&*===--",
".....+@###{]>^&/##$%&*===--",
".....+@####(_:<[##$%&*===--",
".....+@#####}|}###$%&*===--",
".....+@###########$%&*===--",
".....+@###########$%&*===--",
".....+@$$$$$$$$$$$$%&*===--",
".....+%%%%%%%%%%%%%%&*===--",
".....&&&&&&&&&&&&&&&&*===--",
"**********************===--",
"-*=======================--",
"-*=======================--",
"-*=======================--",
"-*-------------------------",
"-*-------------------------"};
