/* XPM */
static char * frameATL_xpm[] = {
"27 27 5 1",
" 	c None",
".	c #32A1FF",
"+	c #3E6D92",
"@	c #218CE5",
"#	c #FFFFFF",
".........................+.",
".........................+.",
"..@@@@@@@@@@@@@@@@@@@@@@@+.",
"..@@@@@@@@@@@@@@@@@@@@@@@+.",
"..@@@@@@@@@@@@@@@@@@@@@@@+.",
"..@@@++++++++++++++++++++++",
"..@@@+...................+.",
"..@@@+.@@@@@@@@@@@@@@@@@@+.",
"..@@@+.@@@@@@@@@@@@@@@@@@+.",
"..@@@+.@@@@@@@@@@@@@@@@@@+.",
"..@@@+.@@@@@@@@@@@@@@@@@@+.",
"..@@@+.@@@@@@@@@@@@@@@@@@+.",
"..@@@+.@@@@@@@@@@@@@@@@@@+.",
"..@@@+.@@@...........+@@@+.",
"..@@@+.@@@.@@@@@@@@@@+@@@+.",
"..@@@+.@@@.@@@@@@@@@@+@@@+.",
"..@@@+.@@@.@@@@@@@@@@+@@@+.",
"..@@@+.@@@.@@@@@@@@@@+@@@+.",
"..@@@+.@@@.+++++++++++@@@+.",
"..@@@+.@@@@@@@@@@@@@@@@@@+.",
"..@@@+.@@@@@@@@@@@@@@@@@@+.",
"..@@@+.@@@@@@@@@@@@@@@@@@+.",
"..@@@+.@@@@@@@@@@@@@@@@@@+.",
"..@@@+.@@@@@@@@@@@@@@@@@@+.",
"..@@@+.@@@@@@@@@@@@@@@@@@+.",
"++++++.+++++++++++++++++++.",
".....+#####################"};
