/* XPM */
static char * frameATR_xpm[] = {
"27 27 6 1",
" 	c None",
".	c #3E6D92",
"+	c #32A1FF",
"@	c #218CE5",
"#	c #FFFFFF",
"$	c #4D4D4D",
".++++++++++++++++++++++++++",
".+++++++++++++++++++++++++.",
".+@@@@@@@@@@@@@@@@@@@@@@@..",
".+@@@@@@@@@@@@@@@@@@@@@@@..",
".+@@@@@@@@@@@@@@@@@@@@@@@..",
"......................@@@..",
".+++++++++++++++++++.+@@@..",
".+@@@@@@@@@@@@@@@@@@.+@@@..",
".+@@@@@@@@@@@@@@@@@@.+@@@..",
".+@@@@@@@@@@@@@@@@@@.+@@@..",
".+@@@+++@@@@@@@++.@@.+@@@..",
".+@@@+@@+@@@@@+@@.@@.+@@@..",
".+@@@+@@@+@@@+@@@.@@.+@@@..",
".+@@@@.@@@+@+@@@.@@@.+@@@..",
".+@@@@@.@@@+@@@.@@@@.+@@@..",
".+@@@@@@.@@@@@.@@@@@.+@@@..",
".+@@@@@@@.@@@+@@@@@@.+@@@..",
".+@@@@@@+@@@@@+@@@@@.+@@@..",
".+@@@@@+@@@.@@@+@@@@.+@@@..",
".+@@@@+@@@.@.@@@+@@@.+@@@..",
".+@@@+@@@.@@@.@@@.@@.+@@@..",
".+@@@.@@.@@@@@.@@.@@.+@@@..",
".+@@@...@@@@@@@...@@.+@@@..",
".+@@@@@@@@@@@@@@@@@@.+@@@..",
".+@@@@@@@@@@@@@@@@@@.+@@@..",
".+...................+.....",
"####################$++++++"};
