/* XPM */
static char *frameIB[] = {
/* columns rows colors chars-per-pixel */
"1 6 3 1",
"  c #5F5F5F5F5F5F",
". c #BEBEBEBEBEBE",
"X c #FFFFFFFFFFFF",
/* pixels */
"X",
".",
".",
".",
" ",
" "
};
