/* XPM */
static char *frameIBR[] = {
/* columns rows colors chars-per-pixel */
"27 27 18 1",
"  c #000000000000",
". c #5F5F5F5F5F5F",
"X c #757575757575",
"o c #8C8C89898282",
"O c #939393939393",
"+ c #9E9E9A9A9191",
"@ c #9A9A9A9A9999",
"# c #9F9F9F9F9D9D",
"$ c #BEBEBEBEBEBE",
"% c #D4D4D3D3CFCF",
"& c #DCDCDADAD5D5",
"* c #DFDFDDDDD8D8",
"= c #EFEFEFEFEFEF",
"- c #F1F1F0F0EEEE",
"; c #F4F4F4F4F2F2",
": c #F7F7F7F7F6F6",
"> c #FAFAFAFAFAFA",
", c #FFFFFFFFFFFF",
/* pixels */
"=====o,&&&&&&&&&&&+ >,.....",
"=====o,&&&&&&&&&&&+ >,,,,,,",
"=====o,&&&&&&&&&&&+ >,$$$..",
"=====o,&&&&&&&&&&&+ >,$$$..",
"=====o,++++++++++++ >,$$$..",
"=====o              >,$$$..",
"=====o,,,,,,,,,,,,, >,$$$..",
"=====o,&&&&&&&&&&&+ >,$$$..",
"=====o,&&&&&&&&&&&+ >,$$$..",
"=====o,&&&&&&&&&&&+ >,$$$..",
"=====o,&&&&&&&&&&&+ >,$$$..",
"=====o,&&#XXXXX#&&+ >,$$$..",
"=====o,&&&@XXX#,-&+ >,$$$..",
"=====o,&&&%OXO>;&&+ >,$$$..",
"=====o,&&&&%@;:&&&+ >,$$$..",
"=====o,&&&&&&:*&&&+ >,$$$..",
"=====o,&&&&&&&&&&&+ >,$$$..",
"=====o,&&&&&&&&&&&+ >,$$$..",
"=====o,++++++++++++ >,$$$..",
"=====o              >,$$$..",
"===-=>>>>>>>>>>>>>>>>,$$$..",
",,,,,,,,,,,,,,,,,,,,,,$$$..",
".,$$$$$$$$$$$$$$$$$$$$$$$..",
".,$$$$$$$$$$$$$$$$$$$$$$$..",
".,$$$$$$$$$$$$$$$$$$$$$$$..",
".,.........................",
".,........................."
};
