/* XPM */
static char *minimizeI[] = {
/* columns rows colors chars-per-pixel */
"20 40 3 1",
"  c #5F5F5F5F5F5F",
". c #BEBEBEBEBEBE",
"X c #FFFFFFFFFFFF",
/* pixels */
"XXXXXXXXXXXXXXXXXXX ",
"X.................. ",
"X.................. ",
"X.................. ",
"X.................. ",
"X.................. ",
"X.................. ",
"X.................. ",
"X.......XXXX ...... ",
"X.......X... ...... ",
"X.......X... ...... ",
"X.......X... ...... ",
"X.......X    ...... ",
"X.................. ",
"X.................. ",
"X.................. ",
"X.................. ",
"X.................. ",
"X.................. ",
"X                   ",
"                   X",
" ..................X",
" ..................X",
" ..................X",
" ..................X",
" ..................X",
" ..................X",
" ..................X",
" .......XXXX ......X",
" .......X... ......X",
" .......X... ......X",
" .......X... ......X",
" .......X    ......X",
" ..................X",
" ..................X",
" ..................X",
" ..................X",
" ..................X",
" ..................X",
" XXXXXXXXXXXXXXXXXXX"
};
