/* XPM */
static char *dummy[]={
"20 40 3 1",
"# c #5f5f5f",
"a c #bebebe",
". c #ffffff",
"...................#",
".aaaaaaaaaaaaaaaaaa#",
".aaaaaaaaaaaaaaaaaa#",
".aaaaaaaaaaaaaaaaaa#",
".aaaaaaaaaaaaaaaaaa#",
".aaaa###########aaa#",
".aaaa#aaaaaaaaa.aaa#",
".aaaa#aaaaaaaaa.aaa#",
".aaaa#aaaaaaaaa.aaa#",
".aaaa#aaaaaaaaa.aaa#",
".aaaa#aaaaaaaaa.aaa#",
".aaaa#aaaaaaaaa.aaa#",
".aaaa#aaaaaaaaa.aaa#",
".aaaa#aaaaaaaaa.aaa#",
".aaaa#aaaaaaaaa.aaa#",
".aaaa...........aaa#",
".aaaaaaaaaaaaaaaaaa#",
".aaaaaaaaaaaaaaaaaa#",
".aaaaaaaaaaaaaaaaaa#",
".###################",
"###################.",
"#aaaaaaaaaaaaaaaaaa.",
"#aaaaaaaaaaaaaaaaaa.",
"#aaaaaaaaaaaaaaaaaa.",
"#aaaaaaaaaaaaaaaaaa.",
"#aaaa###########aaa.",
"#aaaa#aaaaaaaaa.aaa.",
"#aaaa#aaaaaaaaa.aaa.",
"#aaaa#aaaaaaaaa.aaa.",
"#aaaa#aaaaaaaaa.aaa.",
"#aaaa#aaaaaaaaa.aaa.",
"#aaaa#aaaaaaaaa.aaa.",
"#aaaa#aaaaaaaaa.aaa.",
"#aaaa#aaaaaaaaa.aaa.",
"#aaaa#aaaaaaaaa.aaa.",
"#aaaa...........aaa.",
"#aaaaaaaaaaaaaaaaaa.",
"#aaaaaaaaaaaaaaaaaa.",
"#aaaaaaaaaaaaaaaaaa.",
"#..................."};
