/* XPM */
static char * termite_16x16_xpm[] = {
"16 16 15 1",
" 	c None",
".	c #030303",
"+	c #202020",
"@	c #222222",
"#	c #242424",
"$	c #32FF3F",
"%	c #1B1B1B",
"&	c #1D1D1D",
"*	c #1E1E1E",
"=	c #1F1F1F",
"-	c #2D2D2D",
";	c #2F2F2F",
">	c #303030",
",	c #232323",
"'	c #252525",
"                ",
"                ",
"................",
"................",
"..++++++++++++++",
"..@@@@@@@@@@@@@@",
"..###$##$#######",
"..%%$$$$$$%%%%%%",
"..&&&$&&$&&&&&&&",
"..***$**$*******",
"..==$$$$$$======",
"..---$--$-------",
"..;;;;;;;;;;;;;;",
"..>>>>>>>>>>>>>>",
"..,,,,,,,,,,,,,,",
"..''''''''''''''"};
