/* XPM */
static char * termite_xpm[] = {
"32 32 25 1",
" 	c None",
".	c #030303",
"+	c #202020",
"@	c #222222",
"#	c #242424",
"$	c #32FF3F",
"%	c #1B1B1B",
"&	c #1D1D1D",
"*	c #1E1E1E",
"=	c #1F1F1F",
"-	c #2D2D2D",
";	c #2F2F2F",
">	c #303030",
",	c #232323",
"'	c #252525",
")	c #262626",
"!	c #272727",
"~	c #3A3A3A",
"{	c #3C3C3C",
"]	c #3D3D3D",
"^	c #2B2B2B",
"/	c #2E2E2E",
"(	c #474747",
"_	c #484848",
":	c #4A4A4A",
"                                ",
"                                ",
"................................",
"................................",
"..++++++++++++++++++++++++++++..",
"..@@@@@@@@@@@@@@@@@@@@@@@@@@@@..",
"..###$##$#####################..",
"..%%$$$$$$%%%%%%%%%%%%%%%%%%%%..",
"..&&&$&&$&&&&&&&&&&&&&&&&&&&&&..",
"..***$**$*********************..",
"..==$$$$$$====================..",
"..---$--$---------------------..",
"..;;;;;;;;;;;;;;;;;;;;;;;;;;;;..",
"..>>>>>>>>>>>>>>>>>>>>>>>>>>>>..",
"..,,,,,,,,,,,,,,,,,,,,,,,,,,,,..",
"..''''''''''''''''''''''''''''..",
"..))))))))))))))))))))))))))))..",
"..!!!!!!!!!!!!!!!!!!!!!!!!!!!!..",
"..~~~~~~~~~~~~~~~~~~~~~~~~~~~~..",
"..{{{{{{{{{{{{{{{{{{{{{{{{{{{{..",
"..]]]]]]]]]]]]]]]]]]]]]]]]]]]]..",
"..^^^^^^^^^^^^^^^^^^^^^^^^^^^^..",
"..----------------------------..",
"..////////////////////////////..",
"..;;;;;;;;;;;;;;;;;;;;;;;;;;;;..",
"..((((((((((((((((((((((((((((..",
"..____________________________..",
"..::::::::::::::::::::::::::::..",
"................................",
"................................",
"                                ",
"                                "};
