/* XPM */
static char * closeA_xpm[] = {
"46 52 81 1",
" 	c None",
".	c #0A1B2D",
"+	c #0B1C2D",
"@	c #162637",
"#	c #82383C",
"$	c #FBA199",
"%	c #83393C",
"&	c #B0D0F1",
"*	c #5D2438",
"=	c #FA9F97",
"-	c #F57F74",
";	c #5E2538",
">	c #3E92E8",
",	c #F69D95",
"'	c #F37D71",
")	c #2E85E0",
"!	c #F69B92",
"~	c #F17A6E",
"{	c #5F2538",
"]	c #378AE1",
"^	c #5C2338",
"/	c #F3998F",
"(	c #EF776A",
"_	c #936466",
":	c #555666",
"<	c #3689E1",
"[	c #F3968D",
"}	c #EE7467",
"|	c #545666",
"1	c #FDFDFD",
"2	c #936365",
"3	c #F19289",
"4	c #EC6F62",
"5	c #926163",
"6	c #555767",
"7	c #FEFEFE",
"8	c #F09087",
"9	c #EA6C5F",
"0	c #E96C5F",
"a	c #915F62",
"b	c #EF8E85",
"c	c #E9695C",
"d	c #E8695C",
"e	c #915E61",
"f	c #5D2338",
"g	c #EE8C82",
"h	c #E86657",
"i	c #915D5F",
"j	c #EC8A80",
"k	c #E66355",
"l	c #905C5D",
"m	c #5F2638",
"n	c #EB887E",
"o	c #E56052",
"p	c #8F5B5C",
"q	c #3589E1",
"r	c #EA847A",
"s	c #E35C4D",
"t	c #8E595B",
"u	c #E98177",
"v	c #E1584A",
"w	c #8E5759",
"x	c #E0584A",
"y	c #602638",
"z	c #E87F74",
"A	c #E05544",
"B	c #DF5544",
"C	c #E67D72",
"D	c #DE5243",
"E	c #3488E1",
"F	c #E67B70",
"G	c #DD4B3E",
"H	c #E5786E",
"I	c #5E2438",
"J	c #3388E1",
"K	c #3489E1",
"L	c #348AE5",
"M	c #358BE5",
"N	c #338AE3",
"O	c #348BE3",
"P	c #21568C",
".............................+++++++++++++++@@",
"#$$$$$$$$$$$$$$$$$$$$$$$$$$$$$$$$$$$$$$$$$$%&&",
"*=----------------------------------------=;>>",
"*,'''''''''''''''''''''''''''''''''''''''',;))",
"*!~~~~~~~~~~~~~~~~~~~~~~~~~~~~~~~~~~~~~~~~!{]]",
"^/(((((((((((((((_:::_(_:::_((((((((((((((/{<<",
"^[}}}}}}}}}}}}}}}|111|2|111|}}}}}}}}}}}}}}[;<<",
"^344444444444444456771|17765444444444444443{<<",
"^89999999999999990a6771776a0999999999999998{<<",
"^bccccccccccccccccde67776edcccccccccccccccb{<<",
"fghhhhhhhhhhhhhhhhhi|777|ihhhhhhhhhhhhhhhhg{<<",
"fjkkkkkkkkkkkkkkkkl|17771|lkkkkkkkkkkkkkkkjm<<",
"fnooooooooooooooop|1776771|poooooooooooooonmqq",
"frsssssssssssssss|1776t6771|ssssssssssssssrmqq",
"*uvvvvvvvvvvvvvvvw666wxw666wvvvvvvvvvvvvvvuyqq",
"*zAAAAAAAAAAAAAAABBBBBABBBBBAAAAAAAAAAAAAAzyqq",
"*CDDDDDDDDDDDDDDDDDDDDDDDDDDDDDDDDDDDDDDDDCyEE",
"*FGGGGGGGGGGGGGGGGGGGGGGGGGGGGGGGGGGGGGGGGFyEE",
"*HHHHHHHHHHHHHHHHHHHHHHHHHHHHHHHHHHHHHHHHHHyEE",
"**IIIIIII;;;;;;;;;;;;;;;;;{{{{{{{yyyyyyyyyyyqq",
"EEqqqqqEEqqqqqqqEEqEEqqqqEEqqqqqqqEqqEEqqqqqqq",
"EEqqqqqEEqqqqqqqEEqEEqqqqEEqqqqqqqEqqEEqqqqqqq",
"JJKKKKKJJKKKKKKKJJKJJKKKKJJKKKKKKKJKKJJKKKKKKK",
"LLMMMMMLLMMMMMMMLLMLLMMMMLLMMMMMMMLMMLLMMMMMMM",
"NNOOOOONNOOOOOOONNONNOOOONNOOOOOOONOONNOOOOOOO",
"PPPPPPPPPPPPPPPPPPPPPPPPPPPPPPPPPPPPPPPPPPPPPP",
".............................+++++++++++++++@@",
"#$$$$$$$$$$$$$$$$$$$$$$$$$$$$$$$$$$$$$$$$$$%&&",
"*=----------------------------------------=;>>",
"*,'''''''''''''''''''''''''''''''''''''''',;))",
"*!~~~~~~~~~~~~~~~~~~~~~~~~~~~~~~~~~~~~~~~~!{]]",
"^/(((((((((((((((_:::_(_:::_((((((((((((((/{<<",
"^[}}}}}}}}}}}}}}}|111|2|111|}}}}}}}}}}}}}}[;<<",
"^344444444444444456771|17765444444444444443{<<",
"^89999999999999990a6771776a0999999999999998{<<",
"^bccccccccccccccccde67776edcccccccccccccccb{<<",
"fghhhhhhhhhhhhhhhhhi|777|ihhhhhhhhhhhhhhhhg{<<",
"fjkkkkkkkkkkkkkkkkl|17771|lkkkkkkkkkkkkkkkjm<<",
"fnooooooooooooooop|1776771|poooooooooooooonmqq",
"frsssssssssssssss|1776t6771|ssssssssssssssrmqq",
"*uvvvvvvvvvvvvvvvw666wxw666wvvvvvvvvvvvvvvuyqq",
"*zAAAAAAAAAAAAAAABBBBBABBBBBAAAAAAAAAAAAAAzyqq",
"*CDDDDDDDDDDDDDDDDDDDDDDDDDDDDDDDDDDDDDDDDCyEE",
"*FGGGGGGGGGGGGGGGGGGGGGGGGGGGGGGGGGGGGGGGGFyEE",
"*HHHHHHHHHHHHHHHHHHHHHHHHHHHHHHHHHHHHHHHHHHyEE",
"**IIIIIII;;;;;;;;;;;;;;;;;{{{{{{{yyyyyyyyyyyqq",
"EEqqqqqEEqqqqqqqEEqEEqqqqEEqqqqqqqEqqEEqqqqqqq",
"EEqqqqqEEqqqqqqqEEqEEqqqqEEqqqqqqqEqqEEqqqqqqq",
"JJKKKKKJJKKKKKKKJJKJJKKKKJJKKKKKKKJKKJJKKKKKKK",
"LLMMMMMLLMMMMMMMLLMLLMMMMLLMMMMMMMLMMLLMMMMMMM",
"NNOOOOONNOOOOOOONNONNOOOONNOOOOOOONOONNOOOOOOO",
"PPPPPPPPPPPPPPPPPPPPPPPPPPPPPPPPPPPPPPPPPPPPPP"};
