/* XPM */
static char * closeI_xpm[] = {
"46 52 74 1",
" 	c None",
".	c #0A1B2D",
"+	c #0B1C2D",
"@	c #162637",
"#	c #82383C",
"$	c #CACACA",
"%	c #83393C",
"&	c #B0D0F1",
"*	c #5D2438",
"=	c #C9C9C9",
"-	c #B5B5B5",
";	c #5E2538",
">	c #3E92E8",
",	c #C6C6C6",
"'	c #B2B2B2",
")	c #2E85E0",
"!	c #C4C4C4",
"~	c #B0B0B0",
"{	c #5F2538",
"]	c #378AE1",
"^	c #5C2338",
"/	c #C1C1C1",
"(	c #ADADAD",
"_	c #7C7C7C",
":	c #5E5E5E",
"<	c #3689E1",
"[	c #C0C0C0",
"}	c #ABABAB",
"|	c #5D5D5D",
"1	c #FDFDFD",
"2	c #7B7B7B",
"3	c #BDBDBD",
"4	c #A7A7A7",
"5	c #7A7A7A",
"6	c #FEFEFE",
"7	c #BCBCBC",
"8	c #A5A5A5",
"9	c #A4A4A4",
"0	c #787878",
"a	c #BABABA",
"b	c #A3A3A3",
"c	c #A2A2A2",
"d	c #5D2338",
"e	c #B8B8B8",
"f	c #A0A0A0",
"g	c #777777",
"h	c #B6B6B6",
"i	c #9E9E9E",
"j	c #767676",
"k	c #5F2638",
"l	c #9C9C9C",
"m	c #757575",
"n	c #3589E1",
"o	c #989898",
"p	c #747474",
"q	c #969696",
"r	c #737373",
"s	c #959595",
"t	c #602638",
"u	c #AEAEAE",
"v	c #929292",
"w	c #ACACAC",
"x	c #919191",
"y	c #3488E1",
"z	c #8E8E8E",
"A	c #AAAAAA",
"B	c #5E2438",
"C	c #3388E1",
"D	c #3489E1",
"E	c #348AE5",
"F	c #358BE5",
"G	c #338AE3",
"H	c #348BE3",
"I	c #21568C",
".............................+++++++++++++++@@",
"#$$$$$$$$$$$$$$$$$$$$$$$$$$$$$$$$$$$$$$$$$$%&&",
"*=----------------------------------------=;>>",
"*,'''''''''''''''''''''''''''''''''''''''',;))",
"*!~~~~~~~~~~~~~~~~~~~~~~~~~~~~~~~~~~~~~~~~!{]]",
"^/(((((((((((((((_:::_(_:::_((((((((((((((/{<<",
"^[}}}}}}}}}}}}}}}|111|2|111|}}}}}}}}}}}}}}[;<<",
"^34444444444444445:661|166:5444444444444443{<<",
"^788888888888888890:66166:09888888888888887{<<",
"^abbbbbbbbbbbbbbbbc0:666:0cbbbbbbbbbbbbbbba{<<",
"defffffffffffffffffg|666|gffffffffffffffffe{<<",
"dhiiiiiiiiiiiiiiiij|16661|jiiiiiiiiiiiiiiihk<<",
"d-lllllllllllllllm|166:661|mllllllllllllll-knn",
"d'ooooooooooooooo|166:p:661|oooooooooooooo'knn",
"*~qqqqqqqqqqqqqqqr:::rsr:::rqqqqqqqqqqqqqq~tnn",
"*uvvvvvvvvvvvvvvvvvvvvvvvvvvvvvvvvvvvvvvvvutnn",
"*wxxxxxxxxxxxxxxxxxxxxxxxxxxxxxxxxxxxxxxxxwtyy",
"*}zzzzzzzzzzzzzzzzzzzzzzzzzzzzzzzzzzzzzzzz}tyy",
"*AAAAAAAAAAAAAAAAAAAAAAAAAAAAAAAAAAAAAAAAAAtyy",
"**BBBBBBB;;;;;;;;;;;;;;;;;{{{{{{{tttttttttttnn",
"yynnnnnyynnnnnnnyynyynnnnyynnnnnnnynnyynnnnnnn",
"yynnnnnyynnnnnnnyynyynnnnyynnnnnnnynnyynnnnnnn",
"CCDDDDDCCDDDDDDDCCDCCDDDDCCDDDDDDDCDDCCDDDDDDD",
"EEFFFFFEEFFFFFFFEEFEEFFFFEEFFFFFFFEFFEEFFFFFFF",
"GGHHHHHGGHHHHHHHGGHGGHHHHGGHHHHHHHGHHGGHHHHHHH",
"IIIIIIIIIIIIIIIIIIIIIIIIIIIIIIIIIIIIIIIIIIIIII",
".............................+++++++++++++++@@",
"#$$$$$$$$$$$$$$$$$$$$$$$$$$$$$$$$$$$$$$$$$$%&&",
"*=----------------------------------------=;>>",
"*,'''''''''''''''''''''''''''''''''''''''',;))",
"*!~~~~~~~~~~~~~~~~~~~~~~~~~~~~~~~~~~~~~~~~!{]]",
"^/(((((((((((((((_:::_(_:::_((((((((((((((/{<<",
"^[}}}}}}}}}}}}}}}|111|2|111|}}}}}}}}}}}}}}[;<<",
"^34444444444444445:661|166:5444444444444443{<<",
"^788888888888888890:66166:09888888888888887{<<",
"^abbbbbbbbbbbbbbbbc0:666:0cbbbbbbbbbbbbbbba{<<",
"defffffffffffffffffg|666|gffffffffffffffffe{<<",
"dhiiiiiiiiiiiiiiiij|16661|jiiiiiiiiiiiiiiihk<<",
"d-lllllllllllllllm|166:661|mllllllllllllll-knn",
"d'ooooooooooooooo|166:p:661|oooooooooooooo'knn",
"*~qqqqqqqqqqqqqqqr:::rsr:::rqqqqqqqqqqqqqq~tnn",
"*uvvvvvvvvvvvvvvvvvvvvvvvvvvvvvvvvvvvvvvvvutnn",
"*wxxxxxxxxxxxxxxxxxxxxxxxxxxxxxxxxxxxxxxxxwtyy",
"*}zzzzzzzzzzzzzzzzzzzzzzzzzzzzzzzzzzzzzzzz}tyy",
"*AAAAAAAAAAAAAAAAAAAAAAAAAAAAAAAAAAAAAAAAAAtyy",
"**BBBBBBB;;;;;;;;;;;;;;;;;{{{{{{{tttttttttttnn",
"yynnnnnyynnnnnnnyynyynnnnyynnnnnnnynnyynnnnnnn",
"yynnnnnyynnnnnnnyynyynnnnyynnnnnnnynnyynnnnnnn",
"CCDDDDDCCDDDDDDDCCDCCDDDDCCDDDDDDDCDDCCDDDDDDD",
"EEFFFFFEEFFFFFFFEEFEEFFFFEEFFFFFFFEFFEEFFFFFFF",
"GGHHHHHGGHHHHHHHGGHGGHHHHGGHHHHHHHGHHGGHHHHHHH",
"IIIIIIIIIIIIIIIIIIIIIIIIIIIIIIIIIIIIIIIIIIIIII"};
