/* XPM */
static char * frameATL_xpm[] = {
"6 31 80 1",
" 	c None",
".	c #28384B",
"+	c #0A1B2D",
"@	c #E9ECF0",
"#	c #CFDFF1",
"$	c #CCDDEF",
"%	c #D4E5F7",
"&	c #3686DF",
"*	c #3787E0",
"=	c #3686DE",
"-	c #3687DE",
";	c #0A1B2C",
">	c #D4E5F6",
",	c #3786DE",
"'	c #0B1B2C",
")	c #D5E5F6",
"!	c #3886DE",
"~	c #3786DD",
"{	c #3887DE",
"]	c #3886DD",
"^	c #3986DE",
"/	c #3987DF",
"(	c #3986DF",
"_	c #3885DB",
":	c #3985DD",
"<	c #3A87DE",
"[	c #3987DE",
"}	c #3985DB",
"|	c #3A85DB",
"1	c #3B86DC",
"2	c #3B87DC",
"3	c #D6E5F6",
"4	c #3A85DA",
"5	c #3B86DA",
"6	c #3D87DA",
"7	c #3C88DA",
"8	c #0C1B2C",
"9	c #3C87D8",
"0	c #3D88D8",
"a	c #3E89D8",
"b	c #0C1B2B",
"c	c #D6E5F5",
"d	c #3F88D5",
"e	c #4189D5",
"f	c #418AD5",
"g	c #0D1C2B",
"h	c #D8E6F5",
"i	c #488ED4",
"j	c #488ED3",
"k	c #498ED3",
"l	c #498FD4",
"m	c #0F1D2B",
"n	c #DAE7F4",
"o	c #5393D3",
"p	c #5393D1",
"q	c #5494D2",
"r	c #121D2B",
"s	c #DCE8F4",
"t	c #6199D2",
"u	c #6099CF",
"v	c #629AD0",
"w	c #649DD3",
"x	c #131E2A",
"y	c #DEE9F4",
"z	c #6B9ED1",
"A	c #699DCC",
"B	c #699ECC",
"C	c #6BA0CF",
"D	c #15202A",
"E	c #E0EAF4",
"F	c #6FA2CD",
"G	c #6E9FC9",
"H	c #6EA0C9",
"I	c #70A2CB",
"J	c #162029",
"K	c #E0EBF3",
"L	c #6FA2C9",
"M	c #6FA1C5",
"N	c #6FA0C5",
"O	c #6FA2C6",
"      ",
"      ",
"      ",
"      ",
"      ",
".+++++",
"+@##$$",
"+%&&**",
"+%&&**",
"+%&&**",
"+%&&&&",
"+%&==-",
"+%==--",
";>==--",
";>==-,",
"'),,,,",
"'),,,!",
"')~~{{",
"')]!!!",
"')]^/(",
"')_:<[",
"')}|12",
"'34567",
"8390aa",
"bcdefe",
"ghijkl",
"mnoppq",
"rstuvw",
"xyzABC",
"DEFGHI",
"JKLMNO"};
