/* XPM */
static char * frameATR_xpm[] = {
"6 31 80 1",
" 	c None",
".	c #0A1B2D",
"+	c #28384B",
"@	c #CCDDEF",
"#	c #CFDFF1",
"$	c #E9ECF0",
"%	c #3787E0",
"&	c #3686DF",
"*	c #D4E5F7",
"=	c #3687DE",
"-	c #3686DE",
";	c #D4E5F6",
">	c #0A1B2C",
",	c #3786DE",
"'	c #D5E5F6",
")	c #0B1B2C",
"!	c #3886DE",
"~	c #3887DE",
"{	c #3786DD",
"]	c #3886DD",
"^	c #3986DF",
"/	c #3987DF",
"(	c #3986DE",
"_	c #3987DE",
":	c #3A87DE",
"<	c #3985DD",
"[	c #3885DB",
"}	c #3B87DC",
"|	c #3B86DC",
"1	c #3A85DB",
"2	c #3985DB",
"3	c #3C88DA",
"4	c #3D87DA",
"5	c #3B86DA",
"6	c #3A85DA",
"7	c #D6E5F6",
"8	c #3E89D8",
"9	c #3D88D8",
"0	c #3C87D8",
"a	c #0C1B2C",
"b	c #4189D5",
"c	c #418AD5",
"d	c #3F88D5",
"e	c #D6E5F5",
"f	c #0C1B2B",
"g	c #498FD4",
"h	c #498ED3",
"i	c #488ED3",
"j	c #488ED4",
"k	c #D8E6F5",
"l	c #0D1C2B",
"m	c #5494D2",
"n	c #5393D1",
"o	c #5393D3",
"p	c #DAE7F4",
"q	c #0F1D2B",
"r	c #649DD3",
"s	c #629AD0",
"t	c #6099CF",
"u	c #6199D2",
"v	c #DCE8F4",
"w	c #121D2B",
"x	c #6BA0CF",
"y	c #699ECC",
"z	c #699DCC",
"A	c #6B9ED1",
"B	c #DEE9F4",
"C	c #131E2A",
"D	c #70A2CB",
"E	c #6EA0C9",
"F	c #6E9FC9",
"G	c #6FA2CD",
"H	c #E0EAF4",
"I	c #15202A",
"J	c #6FA2C6",
"K	c #6FA0C5",
"L	c #6FA1C5",
"M	c #6FA2C9",
"N	c #E0EBF3",
"O	c #162029",
"      ",
"      ",
"      ",
"      ",
"      ",
".....+",
"@@##$.",
"%%&&*.",
"%%&&*.",
"%%&&*.",
"&&&&*.",
"=--&*.",
"==--*.",
"==--;>",
",=--;>",
",,,,')",
"!,,,')",
"~~{{')",
"!!!]')",
"^/(]')",
"_:<[')",
"}|12')",
"34567)",
"88907a",
"bcbdef",
"ghijkl",
"mnnopq",
"rstuvw",
"xyzABC",
"DEFGHI",
"JKLMNO"};
