/* XPM */
static char * frameABL_xpm[] = {
"6 6 12 1",
" 	c None",
".	c #1C3C5A",
"+	c #B3D3F1",
"@	c #4895E1",
"#	c #4795E1",
"$	c #4896E1",
"%	c #DDE9F5",
"&	c #B1D0EF",
"*	c #AFCFEE",
"=	c #1D3D5C",
"-	c #1F3E5D",
";	c #1E3E5C",
".+@@@#",
".+@@@#",
".+@@@#",
".+@@$@",
".%&&**",
"=-;;;;"};
