/* XPM */
static char * frameABR_xpm[] = {
"6 6 12 1",
" 	c None",
".	c #4795E1",
"+	c #4895E1",
"@	c #B3D3F1",
"#	c #1C3C5A",
"$	c #4896E1",
"%	c #AFCFEE",
"&	c #B1D0EF",
"*	c #DDE9F5",
"=	c #1E3E5C",
"-	c #1F3E5D",
";	c #1D3D5C",
".+++@#",
".+++@#",
".+++@#",
"+$++@#",
"%%&&*#",
"====-;"};
