/* XPM */
static char * dframeAB_xpm[] = {
"1 5 6 1",
" 	c None",
".	c #295886",
"+	c #4493E1",
"@	c #4593E1",
"#	c #AECEEE",
"$	c #1D3D5C",
".",
"+",
"@",
"#",
"$"};
