/* XPM */
static char * maximizeA_xpm[] = {
"26 52 101 2",
"  	c None",
". 	c #162637",
"+ 	c #7A858F",
"@ 	c #CCDDEF",
"# 	c #205387",
"$ 	c #9FC6F0",
"% 	c #72ACEA",
"& 	c #71ACEA",
"* 	c #9DC6F0",
"= 	c #6FABE9",
"- 	c #9BC5EF",
"; 	c #6DAAE9",
"> 	c #6CAAE9",
", 	c #205287",
"' 	c #99C3EF",
") 	c #6AA8E9",
"! 	c #5C799B",
"~ 	c #545767",
"{ 	c #69A8E9",
"] 	c #61A3E8",
"^ 	c #99C3F0",
"/ 	c #67A6E8",
"( 	c #545666",
"_ 	c #FDFDFD",
": 	c #66A6E8",
"< 	c #96C1EF",
"[ 	c #62A3E8",
"} 	c #FEFEFE",
"| 	c #93C0EF",
"1 	c #60A2E7",
"2 	c #555767",
"3 	c #5FA2E7",
"4 	c #92BFEF",
"5 	c #5DA0E7",
"6 	c #5D9FE6",
"7 	c #5CA0E7",
"8 	c #8FBEEE",
"9 	c #599EE6",
"0 	c #549BE5",
"a 	c #8EBDEE",
"b 	c #569CE6",
"c 	c #579CE6",
"d 	c #8BBBEE",
"e 	c #539BE5",
"f 	c #88BAED",
"g 	c #4E98E5",
"h 	c #4F98E5",
"i 	c #87B9ED",
"j 	c #4C96E4",
"k 	c #507199",
"l 	c #4C97E3",
"m 	c #4C97E4",
"n 	c #84B7ED",
"o 	c #4994E4",
"p 	c #4993E3",
"q 	c #4893E3",
"r 	c #4993E2",
"s 	c #4994E2",
"t 	c #4995E3",
"u 	c #4995E4",
"v 	c #4A96E3",
"w 	c #4A96E4",
"x 	c #83B6ED",
"y 	c #4793E3",
"z 	c #4794E3",
"A 	c #4795E3",
"B 	c #81B5EC",
"C 	c #4391E3",
"D 	c #4491E3",
"E 	c #4491E2",
"F 	c #4492E2",
"G 	c #4492E3",
"H 	c #4593E3",
"I 	c #4593E2",
"J 	c #4594E2",
"K 	c #4694E2",
"L 	c #4694E3",
"M 	c #82B7EC",
"N 	c #7FB4EC",
"O 	c #80B4EC",
"P 	c #80B5EC",
"Q 	c #80B5EB",
"R 	c #81B6EB",
"S 	c #81B6EC",
"T 	c #81B7EB",
"U 	c #1F5287",
"V 	c #205386",
"W 	c #215387",
"X 	c #215487",
"Y 	c #225486",
"Z 	c #225586",
"` 	c #225587",
" .	c #3488E1",
"..	c #3589E1",
"+.	c #3388E1",
"@.	c #3489E1",
"#.	c #348AE5",
"$.	c #358BE5",
"%.	c #338AE3",
"&.	c #348BE3",
"*.	c #21568C",
". . . . . . . . . . . . . . . . . . . . . . . . . . ",
"+ @ @ @ @ @ @ @ @ @ @ @ @ @ @ @ @ @ @ @ @ @ @ @ @ @ ",
"# $ % % % % % % % % % % % % % % % % & & & & & & & * ",
"# * = = = = = = = = = = = = = = = = = = = = = = & * ",
"# - ; ; ; ; ; ; ; ; ; ; ; ; ; ; ; ; > > > > > > > * ",
", ' ) ) ) ) ) ! ~ ~ ~ ~ ~ ~ ~ ~ ~ ~ ! { { { { { ] * ",
", ^ / / / / / ( _ _ _ _ _ _ _ _ _ _ ( : : : : : ] * ",
", < [ [ [ [ [ ( } } } } } } } } } } ( ] ] ] ] ] ] * ",
", | 1 1 1 1 1 ( } } 2 2 2 2 2 2 } } ( 3 3 3 3 3 3 * ",
", 4 5 5 5 5 5 ( } } ( 6 6 6 6 ( } } ( 7 7 7 7 7 7 * ",
", 8 9 9 9 9 9 ( } } ( 9 9 9 9 ( } } ( 9 9 9 9 9 0 * ",
", a b b b b b ( } } ( ~ ~ ~ ~ ( } } ( c c c c c 0 * ",
", d e e e e e ( } } _ _ _ _ _ _ } } ( 0 0 0 0 0 0 * ",
", f g g g g g ( } } } } } } } } } } ( h h h h h 0 * ",
", i j j j j j k 2 2 2 2 2 2 2 2 2 2 k l m m m m m * ",
", n o o o o o p p p q q p p p p p r s t u v w v v * ",
", x y y y y y y y y y y y y y y z z z A A A A A A * ",
", B C D D D D D D E D D D F G G H I I J K K L L L M ",
", N N N N N O O O O P Q P R S S S S R R T M M M M M ",
"U U U U , , , , , , , V V # W W W X Y Z Z ` ` ` ` ` ",
" ....... ......... ... ..... ......... ... .........",
" ....... ......... ... ..... ......... ... .........",
"+.@.@.@.+.@.@.@.@.+.@.+.@.@.+.@.@.@.@.+.@.+.@.@.@.@.",
"#.$.$.$.#.$.$.$.$.#.$.#.$.$.#.$.$.$.$.#.$.#.$.$.$.$.",
"%.&.&.&.%.&.&.&.&.%.&.%.&.&.%.&.&.&.&.%.&.%.&.&.&.&.",
"*.*.*.*.*.*.*.*.*.*.*.*.*.*.*.*.*.*.*.*.*.*.*.*.*.*.",
". . . . . . . . . . . . . . . . . . . . . . . . . . ",
"+ @ @ @ @ @ @ @ @ @ @ @ @ @ @ @ @ @ @ @ @ @ @ @ @ @ ",
"# $ % % % % % % % % % % % % % % % % & & & & & & & * ",
"# * = = = = = = = = = = = = = = = = = = = = = = & * ",
"# - ; ; ; ; ; ; ; ; ; ; ; ; ; ; ; ; > > > > > > > * ",
", ' ) ) ) ) ) ! ~ ~ ~ ~ ~ ~ ~ ~ ~ ~ ! { { { { { ] * ",
", ^ / / / / / ( _ _ _ _ _ _ _ _ _ _ ( : : : : : ] * ",
", < [ [ [ [ [ ( } } } } } } } } } } ( ] ] ] ] ] ] * ",
", | 1 1 1 1 1 ( } } 2 2 2 2 2 2 } } ( 3 3 3 3 3 3 * ",
", 4 5 5 5 5 5 ( } } ( 6 6 6 6 ( } } ( 7 7 7 7 7 7 * ",
", 8 9 9 9 9 9 ( } } ( 9 9 9 9 ( } } ( 9 9 9 9 9 0 * ",
", a b b b b b ( } } ( ~ ~ ~ ~ ( } } ( c c c c c 0 * ",
", d e e e e e ( } } _ _ _ _ _ _ } } ( 0 0 0 0 0 0 * ",
", f g g g g g ( } } } } } } } } } } ( h h h h h 0 * ",
", i j j j j j k 2 2 2 2 2 2 2 2 2 2 k l m m m m m * ",
", n o o o o o p p p q q p p p p p r s t u v w v v * ",
", x y y y y y y y y y y y y y y z z z A A A A A A * ",
", B C D D D D D D E D D D F G G H I I J K K L L L M ",
", N N N N N O O O O P Q P R S S S S R R T M M M M M ",
"U U U U , , , , , , , V V # W W W X Y Z Z ` ` ` ` ` ",
" ....... ......... ... ..... ......... ... .........",
" ....... ......... ... ..... ......... ... .........",
"+.@.@.@.+.@.@.@.@.+.@.+.@.@.+.@.@.@.@.+.@.+.@.@.@.@.",
"#.$.$.$.#.$.$.$.$.#.$.#.$.$.#.$.$.$.$.#.$.#.$.$.$.$.",
"%.&.&.&.%.&.&.&.&.%.&.%.&.&.%.&.&.&.&.%.&.%.&.&.&.&.",
"*.*.*.*.*.*.*.*.*.*.*.*.*.*.*.*.*.*.*.*.*.*.*.*.*.*."};
