/* XPM */
static char * maximizeO_xpm[] = {
"26 52 69 1",
" 	c None",
".	c #162637",
"+	c #7A858F",
"@	c #E5EEF7",
"#	c #205387",
"$	c #CFE3F7",
"%	c #3197FF",
"&	c #CEE3F7",
"*	c #2F96FF",
"=	c #CDE2F7",
"-	c #2D95FF",
";	c #205287",
">	c #CCE1F7",
",	c #2B94FF",
"'	c #5C799B",
")	c #545767",
"!	c #2993FF",
"~	c #218FFF",
"{	c #2792FF",
"]	c #545666",
"^	c #FDFDFD",
"/	c #2591FF",
"(	c #CBE0F7",
"_	c #FEFEFE",
":	c #C9DFF7",
"<	c #555767",
"[	c #1F8EFF",
"}	c #1D8DFF",
"|	c #5D9FE6",
"1	c #C7DFF7",
"2	c #198BFF",
"3	c #599EE6",
"4	c #1388FF",
"5	c #C7DEF7",
"6	c #1589FF",
"7	c #178AFF",
"8	c #C5DDF7",
"9	c #C3DDF6",
"0	c #0F86FF",
"a	c #C3DCF6",
"b	c #0B84FF",
"c	c #507199",
"d	c #C1DBF6",
"e	c #0983FF",
"f	c #077CFF",
"g	c #0782FF",
"h	c #0581FF",
"i	c #C0DAF5",
"j	c #0380FF",
"k	c #C1DBF5",
"l	c #BFD9F5",
"m	c #BFDAF5",
"n	c #C0DBF5",
"o	c #1F5287",
"p	c #205386",
"q	c #215387",
"r	c #215487",
"s	c #225486",
"t	c #225586",
"u	c #225587",
"v	c #3488E1",
"w	c #3589E1",
"x	c #3388E1",
"y	c #3489E1",
"z	c #348AE5",
"A	c #358BE5",
"B	c #338AE3",
"C	c #348BE3",
"D	c #21568C",
"..........................",
"+@@@@@@@@@@@@@@@@@@@@@@@@@",
"#$%%%%%%%%%%%%%%%%%%%%%%%&",
"#&**********************%&",
"#=-----------------------&",
";>,,,,,'))))))))))'!!!!!~&",
";>{{{{{]^^^^^^^^^^]/////~&",
";(~~~~~]__________]~~~~~~&",
";:~~~~~]__<<<<<<__][[[[[[&",
";:}}}}}]__]||||]__]}}}}}}&",
";122222]__]3333]__]222224&",
";566666]__]))))]__]777774&",
";844444]__^^^^^^__]444444&",
";900000]__________]000004&",
";abbbbbc<<<<<<<<<<cbbbbbb&",
";deeeeefffggfffffgggeeeee&",
";dhhhhhhhhhhhhhhhhhhhhhhh&",
";ijhhhhhhjhhhjhhhhhhhhhhhk",
";lllllllllmmmnnnnnnnnkkkkk",
"oooo;;;;;;;pp#qqqrsttuuuuu",
"vwwwvwwwwvwvwwvwwwwvwvwwww",
"vwwwvwwwwvwvwwvwwwwvwvwwww",
"xyyyxyyyyxyxyyxyyyyxyxyyyy",
"zAAAzAAAAzAzAAzAAAAzAzAAAA",
"BCCCBCCCCBCBCCBCCCCBCBCCCC",
"DDDDDDDDDDDDDDDDDDDDDDDDDD",
"..........................",
"+@@@@@@@@@@@@@@@@@@@@@@@@@",
"#$%%%%%%%%%%%%%%%%%%%%%%%&",
"#&**********************%&",
"#=-----------------------&",
";>,,,,,'))))))))))'!!!!!~&",
";>{{{{{]^^^^^^^^^^]/////~&",
";(~~~~~]__________]~~~~~~&",
";:~~~~~]__<<<<<<__][[[[[[&",
";:}}}}}]__]||||]__]}}}}}}&",
";122222]__]3333]__]222224&",
";566666]__]))))]__]777774&",
";844444]__^^^^^^__]444444&",
";900000]__________]000004&",
";abbbbbc<<<<<<<<<<cbbbbbb&",
";deeeeefffggfffffgggeeeee&",
";dhhhhhhhhhhhhhhhhhhhhhhh&",
";ijhhhhhhjhhhjhhhhhhhhhhhk",
";lllllllllmmmnnnnnnnnkkkkk",
"oooo;;;;;;;pp#qqqrsttuuuuu",
"vwwwvwwwwvwvwwvwwwwvwvwwww",
"vwwwvwwwwvwvwwvwwwwvwvwwww",
"xyyyxyyyyxyxyyxyyyyxyxyyyy",
"zAAAzAAAAzAzAAzAAAAzAzAAAA",
"BCCCBCCCCBCBCCBCCCCBCBCCCC",
"DDDDDDDDDDDDDDDDDDDDDDDDDD"};
