/* XPM */
static char * maximizeI_xpm[] = {
"26 52 75 1",
" 	c None",
".	c #162637",
"+	c #7A858F",
"@	c #CCDDEF",
"#	c #205387",
"$	c #9FC6F0",
"%	c #AEAEAE",
"&	c #9DC6F0",
"*	c #ACACAC",
"=	c #9BC5EF",
"-	c #ABABAB",
";	c #205287",
">	c #99C3EF",
",	c #AAAAAA",
"'	c #7C7C7C",
")	c #5E5E5E",
"!	c #A9A9A9",
"~	c #A5A5A5",
"{	c #99C3F0",
"]	c #A8A8A8",
"^	c #5D5D5D",
"/	c #FDFDFD",
"(	c #A7A7A7",
"_	c #96C1EF",
":	c #FEFEFE",
"<	c #93C0EF",
"[	c #A4A4A4",
"}	c #A3A3A3",
"|	c #92BFEF",
"1	c #A2A2A2",
"2	c #8FBEEE",
"3	c #A0A0A0",
"4	c #9D9D9D",
"5	c #8EBDEE",
"6	c #9E9E9E",
"7	c #9F9F9F",
"8	c #8BBBEE",
"9	c #9C9C9C",
"0	c #88BAED",
"a	c #9A9A9A",
"b	c #87B9ED",
"c	c #989898",
"d	c #757575",
"e	c #84B7ED",
"f	c #979797",
"g	c #969696",
"h	c #83B6ED",
"i	c #959595",
"j	c #81B5EC",
"k	c #939393",
"l	c #949494",
"m	c #82B7EC",
"n	c #7FB4EC",
"o	c #80B4EC",
"p	c #80B5EC",
"q	c #80B5EB",
"r	c #81B6EB",
"s	c #81B6EC",
"t	c #81B7EB",
"u	c #1F5287",
"v	c #205386",
"w	c #215387",
"x	c #215487",
"y	c #225486",
"z	c #225586",
"A	c #225587",
"B	c #3488E1",
"C	c #3589E1",
"D	c #3388E1",
"E	c #3489E1",
"F	c #348AE5",
"G	c #358BE5",
"H	c #338AE3",
"I	c #348BE3",
"J	c #21568C",
"..........................",
"+@@@@@@@@@@@@@@@@@@@@@@@@@",
"#$%%%%%%%%%%%%%%%%%%%%%%%&",
"#&**********************%&",
"#=-----------------------&",
";>,,,,,'))))))))))'!!!!!~&",
";{]]]]]^//////////^(((((~&",
";_~~~~~^::::::::::^~~~~~~&",
";<[[[[[^::))))))::^}}}}}}&",
";|11111^::^1111^::^111111&",
";233333^::^3333^::^333334&",
";566666^::^))))^::^777774&",
";899999^:://////::^444444&",
";0aaaaa^::::::::::^aaaaa4&",
";bcccccd))))))))))dcccccc&",
";efffffgggggggggggggfffff&",
";hiiiiiiiiiiiiiiiiiiiiiii&",
";jkllllllklllklllllllliiim",
";nnnnnoooopqprssssrrtmmmmm",
"uuuu;;;;;;;vv#wwwxyzzAAAAA",
"BCCCBCCCCBCBCCBCCCCBCBCCCC",
"BCCCBCCCCBCBCCBCCCCBCBCCCC",
"DEEEDEEEEDEDEEDEEEEDEDEEEE",
"FGGGFGGGGFGFGGFGGGGFGFGGGG",
"HIIIHIIIIHIHIIHIIIIHIHIIII",
"JJJJJJJJJJJJJJJJJJJJJJJJJJ",
"..........................",
"+@@@@@@@@@@@@@@@@@@@@@@@@@",
"#$%%%%%%%%%%%%%%%%%%%%%%%&",
"#&**********************%&",
"#=-----------------------&",
";>,,,,,'))))))))))'!!!!!~&",
";{]]]]]^//////////^(((((~&",
";_~~~~~^::::::::::^~~~~~~&",
";<[[[[[^::))))))::^}}}}}}&",
";|11111^::^1111^::^111111&",
";233333^::^3333^::^333334&",
";566666^::^))))^::^777774&",
";899999^:://////::^444444&",
";0aaaaa^::::::::::^aaaaa4&",
";bcccccd))))))))))dcccccc&",
";efffffgggggggggggggfffff&",
";hiiiiiiiiiiiiiiiiiiiiiii&",
";jkllllllklllklllllllliiim",
";nnnnnoooopqprssssrrtmmmmm",
"uuuu;;;;;;;vv#wwwxyzzAAAAA",
"BCCCBCCCCBCBCCBCCCCBCBCCCC",
"BCCCBCCCCBCBCCBCCCCBCBCCCC",
"DEEEDEEEEDEDEEDEEEEDEDEEEE",
"FGGGFGGGGFGFGGFGGGGFGFGGGG",
"HIIIHIIIIHIHIIHIIIIHIHIIII",
"JJJJJJJJJJJJJJJJJJJJJJJJJJ"};
