/* XPM */
static char * menusep_xpm[] = {
"297 2 3 1",
" 	c None",
".	c #E0E0E0",
"+	c #FFFFFF",
".........................................................................................................................................................................................................................................................................................................",
"+++++++++++++++++++++++++++++++++++++++++++++++++++++++++++++++++++++++++++++++++++++++++++++++++++++++++++++++++++++++++++++++++++++++++++++++++++++++++++++++++++++++++++++++++++++++++++++++++++++++++++++++++++++++++++++++++++++++++++++++++++++++++++++++++++++++++++++++++++++++++++++++++++++++++"};
