/* XPM */
static char * minimizeI_xpm[] = {
"26 52 69 1",
" 	c None",
".	c #162637",
"+	c #7A858F",
"@	c #CCDDEF",
"#	c #215387",
"$	c #9FC6F0",
"%	c #AEAEAE",
"&	c #9EC6F0",
"*	c #ACACAC",
"=	c #9DC6F0",
"-	c #9CC5EF",
";	c #ABABAB",
">	c #9BC5EF",
",	c #205287",
"'	c #9AC3EF",
")	c #AAAAAA",
"!	c #A9A9A9",
"~	c #99C3EF",
"{	c #99C3F0",
"]	c #A8A8A8",
"^	c #A7A7A7",
"/	c #96C1EF",
"(	c #A5A5A5",
"_	c #94C0EF",
":	c #A4A4A4",
"<	c #A3A3A3",
"[	c #93C0EF",
"}	c #92BFEF",
"|	c #A2A2A2",
"1	c #90BEEE",
"2	c #A0A0A0",
"3	c #6F6F6F",
"4	c #5D5D5D",
"5	c #8FBEEE",
"6	c #8EBDEE",
"7	c #9F9F9F",
"8	c #FDFDFD",
"9	c #9E9E9E",
"0	c #8CBBEE",
"a	c #9D9D9D",
"b	c #FEFEFE",
"c	c #9C9C9C",
"d	c #8BBBEE",
"e	c #89BAED",
"f	c #9A9A9A",
"g	c #88BAED",
"h	c #87B9ED",
"i	c #989898",
"j	c #6D6D6D",
"k	c #5E5E5E",
"l	c #84B7ED",
"m	c #969696",
"n	c #83B6ED",
"o	c #959595",
"p	c #81B5EC",
"q	c #939393",
"r	c #7FB4EC",
"s	c #7FB4EB",
"t	c #1F5287",
"u	c #1F5286",
"v	c #3488E1",
"w	c #3589E1",
"x	c #3388E1",
"y	c #3489E1",
"z	c #348AE5",
"A	c #358BE5",
"B	c #338AE3",
"C	c #348BE3",
"D	c #21568C",
"..........................",
"+@@@@@@@@@@@@@@@@@@@@@@@@@",
"#$%%%%%%%%%%%%%%%%%%%%%%%$",
"#&***********************=",
"#-;;;;;;;;;;;;;;;;;;;;;;;>",
",')))))))))!!!!!!!!!!!!!!~",
",{]]]]]]]]]^^^^^^^^^^^^^^{",
",/(((((((((((((((((((((((/",
",_:::::::::<<<<<<<<<<<<<<[",
",}|||||||||||||||||||||||}",
",1222223444444444432222225",
",6777774888888888849999996",
",0aaaaa4bbbbbbbbbb4ccccccd",
",efffff4bbbbbbbbbb4ffffffg",
",hiiiiijkkkkkkkkkkjiiiiiih",
",lmmmmmmmmmmmmmmmmmmmmmmml",
",nooooooooooooooooooooooon",
",pqqqqqqqqqqqqqqqqqqqqqqqp",
",rrrrrrrrrrssssrrrrrrrrrrr",
"tttttttttttuuuuttttttttttt",
"vwwwvwwwwvwvwwvwwwwvwvwwww",
"vwwwvwwwwvwvwwvwwwwvwvwwww",
"xyyyxyyyyxyxyyxyyyyxyxyyyy",
"zAAAzAAAAzAzAAzAAAAzAzAAAA",
"BCCCBCCCCBCBCCBCCCCBCBCCCC",
"DDDDDDDDDDDDDDDDDDDDDDDDDD",
"..........................",
"+@@@@@@@@@@@@@@@@@@@@@@@@@",
"#$%%%%%%%%%%%%%%%%%%%%%%%$",
"#&***********************=",
"#-;;;;;;;;;;;;;;;;;;;;;;;>",
",')))))))))!!!!!!!!!!!!!!~",
",{]]]]]]]]]^^^^^^^^^^^^^^{",
",/(((((((((((((((((((((((/",
",_:::::::::<<<<<<<<<<<<<<[",
",}|||||||||||||||||||||||}",
",1222223444444444432222225",
",6777774888888888849999996",
",0aaaaa4bbbbbbbbbb4ccccccd",
",efffff4bbbbbbbbbb4ffffffg",
",hiiiiijkkkkkkkkkkjiiiiiih",
",lmmmmmmmmmmmmmmmmmmmmmmml",
",nooooooooooooooooooooooon",
",pqqqqqqqqqqqqqqqqqqqqqqqp",
",rrrrrrrrrrssssrrrrrrrrrrr",
"tttttttttttuuuuttttttttttt",
"vwwwvwwwwvwvwwvwwwwvwvwwww",
"vwwwvwwwwvwvwwvwwwwvwvwwww",
"xyyyxyyyyxyxyyxyyyyxyxyyyy",
"zAAAzAAAAzAzAAzAAAAzAzAAAA",
"BCCCBCCCCBCBCCBCCCCBCBCCCC",
"DDDDDDDDDDDDDDDDDDDDDDDDDD"};
