/* XPM */
static char * minimizeO_xpm[] = {
"26 52 63 1",
" 	c None",
".	c #162637",
"+	c #7A858F",
"@	c #E2ECF6",
"#	c #215387",
"$	c #C9DFF7",
"%	c #379AFF",
"&	c #C8DFF7",
"*	c #3398FF",
"=	c #C7DEF6",
"-	c #3197FF",
";	c #C6DEF6",
">	c #205287",
",	c #C6DDF6",
"'	c #2F96FF",
")	c #C5DDF6",
"!	c #C5DDF7",
"~	c #2D95FF",
"{	c #2B94FF",
"]	c #C4DCF6",
"^	c #2792FF",
"/	c #C3DBF6",
"(	c #2591FF",
"_	c #2390FF",
":	c #C2DBF6",
"<	c #C1DBF6",
"[	c #218FFF",
"}	c #C0DAF5",
"|	c #1F8EFF",
"1	c #355A91",
"2	c #434763",
"3	c #BFDAF5",
"4	c #1D8DFF",
"5	c #E2E2E2",
"6	c #1B8CFF",
"7	c #BED9F5",
"8	c #198BFF",
"9	c #E3E3E3",
"0	c #178AFF",
"a	c #BDD9F5",
"b	c #BCD8F5",
"c	c #1388FF",
"d	c #BBD7F5",
"e	c #0F86FF",
"f	c #305992",
"g	c #444864",
"h	c #B9D6F5",
"i	c #0D85FF",
"j	c #0B84FF",
"k	c #B8D5F4",
"l	c #0782FF",
"m	c #B7D5F4",
"n	c #1F5287",
"o	c #1F5286",
"p	c #3488E1",
"q	c #3589E1",
"r	c #3388E1",
"s	c #3489E1",
"t	c #348AE5",
"u	c #358BE5",
"v	c #338AE3",
"w	c #348BE3",
"x	c #21568C",
"..........................",
"+@@@@@@@@@@@@@@@@@@@@@@@@@",
"#$%%%%%%%%%%%%%%%%%%%%%%%$",
"#&***********************&",
"#=-----------------------;",
">,---------'''''''''''''')",
">!~~~~~~~~~{{{{{{{{{{{{{{!",
">]^^^^^^^^^^^^^^^^^^^^^^^]",
">/(((((((((______________:",
"><[[[[[[[[[[[[[[[[[[[[[[[<",
">}|||||122222222221||||||}",
">3444442555555555526666663",
">788888299999999992000000a",
">bccccc299999999992ccccccb",
">deeeeefggggggggggfeeeeeed",
">hiiiiiiiiiiiiiiiiiiiiiiih",
">hjjjjjjjjjjjjjjjjjjjjjjjh",
">klllllllllllllllllllllllk",
">mmmmmmmmmmmmmmmmmmmmmmmmm",
"nnnnnnnnnnnoooonnnnnnnnnnn",
"pqqqpqqqqpqpqqpqqqqpqpqqqq",
"pqqqpqqqqpqpqqpqqqqpqpqqqq",
"rsssrssssrsrssrssssrsrssss",
"tuuutuuuututuutuuuututuuuu",
"vwwwvwwwwvwvwwvwwwwvwvwwww",
"xxxxxxxxxxxxxxxxxxxxxxxxxx",
"..........................",
"+@@@@@@@@@@@@@@@@@@@@@@@@@",
"#$%%%%%%%%%%%%%%%%%%%%%%%$",
"#&***********************&",
"#=-----------------------;",
">,---------'''''''''''''')",
">!~~~~~~~~~{{{{{{{{{{{{{{!",
">]^^^^^^^^^^^^^^^^^^^^^^^]",
">/(((((((((______________:",
"><[[[[[[[[[[[[[[[[[[[[[[[<",
">}|||||122222222221||||||}",
">3444442555555555526666663",
">788888299999999992000000a",
">bccccc299999999992ccccccb",
">deeeeefggggggggggfeeeeeed",
">hiiiiiiiiiiiiiiiiiiiiiiih",
">hjjjjjjjjjjjjjjjjjjjjjjjh",
">klllllllllllllllllllllllk",
">mmmmmmmmmmmmmmmmmmmmmmmmm",
"nnnnnnnnnnnoooonnnnnnnnnnn",
"pqqqpqqqqpqpqqpqqqqpqpqqqq",
"pqqqpqqqqpqpqqpqqqqpqpqqqq",
"rsssrssssrsrssrssssrsrssss",
"tuuutuuuututuutuuuututuuuu",
"vwwwvwwwwvwvwwvwwwwvwvwwww",
"xxxxxxxxxxxxxxxxxxxxxxxxxx"};
