/* XPM */
static char * minimizeA_xpm[] = {
"26 52 75 1",
" 	c None",
".	c #162637",
"+	c #7A858F",
"@	c #CCDDEF",
"#	c #215387",
"$	c #9FC6F0",
"%	c #72ACEA",
"&	c #71ACEA",
"*	c #9EC6F0",
"=	c #6FABE9",
"-	c #9DC6F0",
";	c #9CC5EF",
">	c #6DAAE9",
",	c #6CAAE9",
"'	c #9BC5EF",
")	c #205287",
"!	c #9AC3EF",
"~	c #6AA8E9",
"{	c #69A8E9",
"]	c #99C3EF",
"^	c #99C3F0",
"/	c #67A6E8",
"(	c #66A6E8",
"_	c #96C1EF",
":	c #62A3E8",
"<	c #61A3E8",
"[	c #94C0EF",
"}	c #60A2E7",
"|	c #5FA2E7",
"1	c #93C0EF",
"2	c #92BFEF",
"3	c #5DA0E7",
"4	c #5CA0E7",
"5	c #90BEEE",
"6	c #599EE6",
"7	c #556988",
"8	c #545666",
"9	c #8FBEEE",
"0	c #8EBDEE",
"a	c #579CE6",
"b	c #FDFDFD",
"c	c #569CE6",
"d	c #8CBBEE",
"e	c #549BE5",
"f	c #FEFEFE",
"g	c #539BE5",
"h	c #8BBBEE",
"i	c #89BAED",
"j	c #4F98E5",
"k	c #4E98E5",
"l	c #88BAED",
"m	c #87B9ED",
"n	c #4B96E4",
"o	c #516888",
"p	c #555767",
"q	c #84B7ED",
"r	c #4894E4",
"s	c #4893E3",
"t	c #83B6ED",
"u	c #4693E3",
"v	c #81B5EC",
"w	c #4391E3",
"x	c #7FB4EC",
"y	c #7FB4EB",
"z	c #1F5287",
"A	c #1F5286",
"B	c #3488E1",
"C	c #3589E1",
"D	c #3388E1",
"E	c #3489E1",
"F	c #348AE5",
"G	c #358BE5",
"H	c #338AE3",
"I	c #348BE3",
"J	c #21568C",
"..........................",
"+@@@@@@@@@@@@@@@@@@@@@@@@@",
"#$%%%%%%%%%&&&&&&&&&&&&&&$",
"#*=======================-",
"#;>>>>>>>>>,,,,,,,,,,,,,,'",
")!~~~~~~~~~{{{{{{{{{{{{{{]",
")^/////////((((((((((((((^",
")_:::::::::<<<<<<<<<<<<<<_",
")[}}}}}}}}}||||||||||||||1",
")2333333333444444444444442",
")5666667888888888876666669",
")0aaaaa8bbbbbbbbbb8cccccc0",
")deeeee8ffffffffff8ggggggh",
")ijjjjj8ffffffffff8kkkkkkl",
")mnnnnnopppppppppponnnnnnm",
")qrrrrrssssssssssssrrrrrrq",
")tuuuuuuuuuuuuuuuuuuuuuuut",
")vwwwwwwwwwwwwwwwwwwwwwwwv",
")xxxxxxxxxxyyyyxxxxxxxxxxx",
"zzzzzzzzzzzAAAAzzzzzzzzzzz",
"BCCCBCCCCBCBCCBCCCCBCBCCCC",
"BCCCBCCCCBCBCCBCCCCBCBCCCC",
"DEEEDEEEEDEDEEDEEEEDEDEEEE",
"FGGGFGGGGFGFGGFGGGGFGFGGGG",
"HIIIHIIIIHIHIIHIIIIHIHIIII",
"JJJJJJJJJJJJJJJJJJJJJJJJJJ",
"..........................",
"+@@@@@@@@@@@@@@@@@@@@@@@@@",
"#$%%%%%%%%%&&&&&&&&&&&&&&$",
"#*=======================-",
"#;>>>>>>>>>,,,,,,,,,,,,,,'",
")!~~~~~~~~~{{{{{{{{{{{{{{]",
")^/////////((((((((((((((^",
")_:::::::::<<<<<<<<<<<<<<_",
")[}}}}}}}}}||||||||||||||1",
")2333333333444444444444442",
")5666667888888888876666669",
")0aaaaa8bbbbbbbbbb8cccccc0",
")deeeee8ffffffffff8ggggggh",
")ijjjjj8ffffffffff8kkkkkkl",
")mnnnnnopppppppppponnnnnnm",
")qrrrrrssssssssssssrrrrrrq",
")tuuuuuuuuuuuuuuuuuuuuuuut",
")vwwwwwwwwwwwwwwwwwwwwwwwv",
")xxxxxxxxxxyyyyxxxxxxxxxxx",
"zzzzzzzzzzzAAAAzzzzzzzzzzz",
"BCCCBCCCCBCBCCBCCCCBCBCCCC",
"BCCCBCCCCBCBCCBCCCCBCBCCCC",
"DEEEDEEEEDEDEEDEEEEDEDEEEE",
"FGGGFGGGGFGFGGFGGGGFGFGGGG",
"HIIIHIIIIHIHIIHIIIIHIHIIII",
"JJJJJJJJJJJJJJJJJJJJJJJJJJ"};
