/* XPM */
static char * restoreO_xpm[] = {
"26 52 69 1",
" 	c None",
".	c #162637",
"+	c #7A858F",
"@	c #E2ECF6",
"#	c #205387",
"$	c #C9DFF7",
"%	c #3F9EFF",
"&	c #C8DFF7",
"*	c #3B9CFF",
"=	c #C6DEF6",
"-	c #399BFF",
";	c #8D909E",
">	c #535666",
",	c #999AA4",
"'	c #205287",
")	c #C5DDF6",
"!	c #FCFCFC",
"~	c #379AFF",
"{	c #2F96FF",
"]	c #C5DDF7",
"^	c #3599FF",
"/	c #3398FF",
"(	c #C4DCF6",
"_	c #C2DBF6",
":	c #2D95FF",
"<	c #E9E9E9",
"[	c #2B94FF",
"}	c #C1DBF6",
"|	c #2993FF",
"1	c #C0DAF5",
"2	c #2591FF",
"3	c #E2E2E2",
"4	c #218FFF",
"5	c #BFDAF5",
"6	c #DCDCDC",
"7	c #2390FF",
"8	c #BDD9F5",
"9	c #1F8EFF",
"0	c #D7D7D7",
"a	c #BCD8F5",
"b	c #1B8CFF",
"c	c #7B8094",
"d	c #BBD7F5",
"e	c #178AFF",
"f	c #B9D6F5",
"g	c #1589FF",
"h	c #1388FF",
"i	c #1187FF",
"j	c #B8D5F4",
"k	c #0D85FF",
"l	c #0F86FF",
"m	c #B8D6F4",
"n	c #B7D5F4",
"o	c #1F5287",
"p	c #205386",
"q	c #215387",
"r	c #215487",
"s	c #225486",
"t	c #225586",
"u	c #225587",
"v	c #3488E1",
"w	c #3589E1",
"x	c #3388E1",
"y	c #3489E1",
"z	c #348AE5",
"A	c #358BE5",
"B	c #338AE3",
"C	c #348BE3",
"D	c #21568C",
"..........................",
"+@@@@@@@@@@@@@@@@@@@@@@@@@",
"#$%%%%%%%%%%%%%%%%%%%%%%%&",
"#&**********************%&",
"#=-------;>>>>>>>>,------&",
"')------->!!!!!!!!>-~~~~{&",
"']^^^^^;>>>>>>>>,!>^////{&",
"'({{{{{>!!!!!!!!>!>{{{{{{&",
"'_:::::>!!!!!!!!><>:[[[[[&",
"'}|||||>!!>>>>!!><>||||||&",
"'122222><<>22><<>3>222224&",
"'544444><<>44><<>6>477774&",
"'899999>33>>>>33>0>944444&",
"'abbbbb>66666666>>cbbbbb4&",
"'deeeee>00000000>eeeeeeee&",
"'fgggggc>>>>>>>>chhhggggg&",
"'fiiiiiiiiiiiiiiiiiiiiiii&",
"'jkllllllklllklllllllliiim",
"'nnnnnnnnnnnnmmmmmmmmmmmmm",
"oooo'''''''pp#qqqrsttuuuuu",
"vwwwvwwwwvwvwwvwwwwvwvwwww",
"vwwwvwwwwvwvwwvwwwwvwvwwww",
"xyyyxyyyyxyxyyxyyyyxyxyyyy",
"zAAAzAAAAzAzAAzAAAAzAzAAAA",
"BCCCBCCCCBCBCCBCCCCBCBCCCC",
"DDDDDDDDDDDDDDDDDDDDDDDDDD",
"..........................",
"+@@@@@@@@@@@@@@@@@@@@@@@@@",
"#$%%%%%%%%%%%%%%%%%%%%%%%&",
"#&**********************%&",
"#=-------;>>>>>>>>,------&",
"')------->!!!!!!!!>-~~~~{&",
"']^^^^^;>>>>>>>>,!>^////{&",
"'({{{{{>!!!!!!!!>!>{{{{{{&",
"'_:::::>!!!!!!!!><>:[[[[[&",
"'}|||||>!!>>>>!!><>||||||&",
"'122222><<>22><<>3>222224&",
"'544444><<>44><<>6>477774&",
"'899999>33>>>>33>0>944444&",
"'abbbbb>66666666>>cbbbbb4&",
"'deeeee>00000000>eeeeeeee&",
"'fgggggc>>>>>>>>chhhggggg&",
"'fiiiiiiiiiiiiiiiiiiiiiii&",
"'jkllllllklllklllllllliiim",
"'nnnnnnnnnnnnmmmmmmmmmmmmm",
"oooo'''''''pp#qqqrsttuuuuu",
"vwwwvwwwwvwvwwvwwwwvwvwwww",
"vwwwvwwwwvwvwwvwwwwvwvwwww",
"xyyyxyyyyxyxyyxyyyyxyxyyyy",
"zAAAzAAAAzAzAAzAAAAzAzAAAA",
"BCCCBCCCCBCBCCBCCCCBCBCCCC",
"DDDDDDDDDDDDDDDDDDDDDDDDDD"};
