/* XPM */
static char * restoreA_xpm[] = {
"26 52 101 2",
"  	c None",
". 	c #162637",
"+ 	c #7A858F",
"@ 	c #CCDDEF",
"# 	c #205387",
"$ 	c #9FC6F0",
"% 	c #72ACEA",
"& 	c #71ACEA",
"* 	c #9DC6F0",
"= 	c #6FABE9",
"- 	c #9BC5EF",
"; 	c #6DAAE9",
"> 	c #8D909E",
", 	c #535666",
"' 	c #999AA4",
") 	c #6CAAE9",
"! 	c #205287",
"~ 	c #99C3EF",
"{ 	c #6AA8E9",
"] 	c #FCFCFC",
"^ 	c #69A8E9",
"/ 	c #61A3E8",
"( 	c #99C3F0",
"_ 	c #67A6E8",
": 	c #66A6E8",
"< 	c #96C1EF",
"[ 	c #62A3E8",
"} 	c #93C0EF",
"| 	c #60A2E7",
"1 	c #E9E9E9",
"2 	c #5FA2E7",
"3 	c #92BFEF",
"4 	c #5DA0E7",
"5 	c #5CA0E7",
"6 	c #8FBEEE",
"7 	c #599EE6",
"8 	c #2591FF",
"9 	c #E2E2E2",
"0 	c #549BE5",
"a 	c #8EBDEE",
"b 	c #569CE6",
"c 	c #218FFF",
"d 	c #DCDCDC",
"e 	c #579CE6",
"f 	c #8BBBEE",
"g 	c #539BE5",
"h 	c #D7D7D7",
"i 	c #88BAED",
"j 	c #4E98E5",
"k 	c #7B8094",
"l 	c #4F98E5",
"m 	c #87B9ED",
"n 	c #4C96E4",
"o 	c #4C97E4",
"p 	c #84B7ED",
"q 	c #4994E4",
"r 	c #4993E2",
"s 	c #4994E2",
"t 	c #4995E3",
"u 	c #4995E4",
"v 	c #4A96E3",
"w 	c #4A96E4",
"x 	c #83B6ED",
"y 	c #4793E3",
"z 	c #4794E3",
"A 	c #4795E3",
"B 	c #81B5EC",
"C 	c #4391E3",
"D 	c #4491E3",
"E 	c #4491E2",
"F 	c #4492E2",
"G 	c #4492E3",
"H 	c #4593E3",
"I 	c #4593E2",
"J 	c #4594E2",
"K 	c #4694E2",
"L 	c #4694E3",
"M 	c #82B7EC",
"N 	c #7FB4EC",
"O 	c #80B4EC",
"P 	c #80B5EC",
"Q 	c #80B5EB",
"R 	c #81B6EB",
"S 	c #81B6EC",
"T 	c #81B7EB",
"U 	c #1F5287",
"V 	c #205386",
"W 	c #215387",
"X 	c #215487",
"Y 	c #225486",
"Z 	c #225586",
"` 	c #225587",
" .	c #3488E1",
"..	c #3589E1",
"+.	c #3388E1",
"@.	c #3489E1",
"#.	c #348AE5",
"$.	c #358BE5",
"%.	c #338AE3",
"&.	c #348BE3",
"*.	c #21568C",
". . . . . . . . . . . . . . . . . . . . . . . . . . ",
"+ @ @ @ @ @ @ @ @ @ @ @ @ @ @ @ @ @ @ @ @ @ @ @ @ @ ",
"# $ % % % % % % % % % % % % % % % % & & & & & & & * ",
"# * = = = = = = = = = = = = = = = = = = = = = = & * ",
"# - ; ; ; ; ; ; ; > , , , , , , , , ' ) ) ) ) ) ) * ",
"! ~ { { { { { { { , ] ] ] ] ] ] ] ] , { ^ ^ ^ ^ / * ",
"! ( _ _ _ _ _ > , , , , , , , , ' ] , _ : : : : / * ",
"! < [ [ [ [ [ , ] ] ] ] ] ] ] ] , ] , [ / / / / / * ",
"! } | | | | | , ] ] ] ] ] ] ] ] , 1 , | 2 2 2 2 2 * ",
"! 3 4 4 4 4 4 , ] ] , , , , ] ] , 1 , 4 5 5 5 5 5 * ",
"! 6 7 7 7 7 7 , 1 1 , 8 8 , 1 1 , 9 , 7 7 7 7 7 0 * ",
"! a b b b b b , 1 1 , c c , 1 1 , d , b e e e e 0 * ",
"! f g g g g g , 9 9 , , , , 9 9 , h , g 0 0 0 0 0 * ",
"! i j j j j j , d d d d d d d d , , k j l l l l 0 * ",
"! m n n n n n , h h h h h h h h , n n n o o o o o * ",
"! p q q q q q k , , , , , , , , k r s t u v w v v * ",
"! x y y y y y y y y y y y y y y z z z A A A A A A * ",
"! B C D D D D D D E D D D F G G H I I J K K L L L M ",
"! N N N N N O O O O P Q P R S S S S R R T M M M M M ",
"U U U U ! ! ! ! ! ! ! V V # W W W X Y Z Z ` ` ` ` ` ",
" ....... ......... ... ..... ......... ... .........",
" ....... ......... ... ..... ......... ... .........",
"+.@.@.@.+.@.@.@.@.+.@.+.@.@.+.@.@.@.@.+.@.+.@.@.@.@.",
"#.$.$.$.#.$.$.$.$.#.$.#.$.$.#.$.$.$.$.#.$.#.$.$.$.$.",
"%.&.&.&.%.&.&.&.&.%.&.%.&.&.%.&.&.&.&.%.&.%.&.&.&.&.",
"*.*.*.*.*.*.*.*.*.*.*.*.*.*.*.*.*.*.*.*.*.*.*.*.*.*.",
". . . . . . . . . . . . . . . . . . . . . . . . . . ",
"+ @ @ @ @ @ @ @ @ @ @ @ @ @ @ @ @ @ @ @ @ @ @ @ @ @ ",
"# $ % % % % % % % % % % % % % % % % & & & & & & & * ",
"# * = = = = = = = = = = = = = = = = = = = = = = & * ",
"# - ; ; ; ; ; ; ; > , , , , , , , , ' ) ) ) ) ) ) * ",
"! ~ { { { { { { { , ] ] ] ] ] ] ] ] , { ^ ^ ^ ^ / * ",
"! ( _ _ _ _ _ > , , , , , , , , ' ] , _ : : : : / * ",
"! < [ [ [ [ [ , ] ] ] ] ] ] ] ] , ] , [ / / / / / * ",
"! } | | | | | , ] ] ] ] ] ] ] ] , 1 , | 2 2 2 2 2 * ",
"! 3 4 4 4 4 4 , ] ] , , , , ] ] , 1 , 4 5 5 5 5 5 * ",
"! 6 7 7 7 7 7 , 1 1 , 8 8 , 1 1 , 9 , 7 7 7 7 7 0 * ",
"! a b b b b b , 1 1 , c c , 1 1 , d , b e e e e 0 * ",
"! f g g g g g , 9 9 , , , , 9 9 , h , g 0 0 0 0 0 * ",
"! i j j j j j , d d d d d d d d , , k j l l l l 0 * ",
"! m n n n n n , h h h h h h h h , n n n o o o o o * ",
"! p q q q q q k , , , , , , , , k r s t u v w v v * ",
"! x y y y y y y y y y y y y y y z z z A A A A A A * ",
"! B C D D D D D D E D D D F G G H I I J K K L L L M ",
"! N N N N N O O O O P Q P R S S S S R R T M M M M M ",
"U U U U ! ! ! ! ! ! ! V V # W W W X Y Z Z ` ` ` ` ` ",
" ....... ......... ... ..... ......... ... .........",
" ....... ......... ... ..... ......... ... .........",
"+.@.@.@.+.@.@.@.@.+.@.+.@.@.+.@.@.@.@.+.@.+.@.@.@.@.",
"#.$.$.$.#.$.$.$.$.#.$.#.$.$.#.$.$.$.$.#.$.#.$.$.$.$.",
"%.&.&.&.%.&.&.&.&.%.&.%.&.&.%.&.&.&.&.%.&.%.&.&.&.&.",
"*.*.*.*.*.*.*.*.*.*.*.*.*.*.*.*.*.*.*.*.*.*.*.*.*.*."};
