/* XPM */
static char * restoreI_xpm[] = {
"26 52 78 1",
" 	c None",
".	c #162637",
"+	c #7A858F",
"@	c #CCDDEF",
"#	c #205387",
"$	c #9FC6F0",
"%	c #AEAEAE",
"&	c #9DC6F0",
"*	c #ACACAC",
"=	c #9BC5EF",
"-	c #ABABAB",
";	c #8D909E",
">	c #535666",
",	c #999AA4",
"'	c #205287",
")	c #99C3EF",
"!	c #AAAAAA",
"~	c #FCFCFC",
"{	c #A9A9A9",
"]	c #A5A5A5",
"^	c #99C3F0",
"/	c #A8A8A8",
"(	c #A7A7A7",
"_	c #96C1EF",
":	c #93C0EF",
"<	c #A4A4A4",
"[	c #E9E9E9",
"}	c #A3A3A3",
"|	c #92BFEF",
"1	c #A2A2A2",
"2	c #8FBEEE",
"3	c #A0A0A0",
"4	c #E2E2E2",
"5	c #9D9D9D",
"6	c #8EBDEE",
"7	c #9E9E9E",
"8	c #DCDCDC",
"9	c #9F9F9F",
"0	c #8BBBEE",
"a	c #9C9C9C",
"b	c #D7D7D7",
"c	c #88BAED",
"d	c #9A9A9A",
"e	c #7B8094",
"f	c #87B9ED",
"g	c #989898",
"h	c #84B7ED",
"i	c #979797",
"j	c #969696",
"k	c #83B6ED",
"l	c #959595",
"m	c #81B5EC",
"n	c #939393",
"o	c #949494",
"p	c #82B7EC",
"q	c #7FB4EC",
"r	c #80B4EC",
"s	c #80B5EC",
"t	c #80B5EB",
"u	c #81B6EB",
"v	c #81B6EC",
"w	c #81B7EB",
"x	c #1F5287",
"y	c #205386",
"z	c #215387",
"A	c #215487",
"B	c #225486",
"C	c #225586",
"D	c #225587",
"E	c #3488E1",
"F	c #3589E1",
"G	c #3388E1",
"H	c #3489E1",
"I	c #348AE5",
"J	c #358BE5",
"K	c #338AE3",
"L	c #348BE3",
"M	c #21568C",
"..........................",
"+@@@@@@@@@@@@@@@@@@@@@@@@@",
"#$%%%%%%%%%%%%%%%%%%%%%%%&",
"#&**********************%&",
"#=-------;>>>>>>>>,------&",
"')!!!!!!!>~~~~~~~~>!{{{{]&",
"'^/////;>>>>>>>>,~>/((((]&",
"'_]]]]]>~~~~~~~~>~>]]]]]]&",
"':<<<<<>~~~~~~~~>[><}}}}}&",
"'|11111>~~>>>>~~>[>111111&",
"'233333>[[>33>[[>4>333335&",
"'677777>[[>77>[[>8>799995&",
"'0aaaaa>44>>>>44>b>a55555&",
"'cddddd>88888888>>eddddd5&",
"'fggggg>bbbbbbbb>gggggggg&",
"'hiiiiie>>>>>>>>ejjjiiiii&",
"'klllllllllllllllllllllll&",
"'mnoooooonooonoooooooolllp",
"'qqqqqrrrrstsuvvvvuuwppppp",
"xxxx'''''''yy#zzzABCCDDDDD",
"EFFFEFFFFEFEFFEFFFFEFEFFFF",
"EFFFEFFFFEFEFFEFFFFEFEFFFF",
"GHHHGHHHHGHGHHGHHHHGHGHHHH",
"IJJJIJJJJIJIJJIJJJJIJIJJJJ",
"KLLLKLLLLKLKLLKLLLLKLKLLLL",
"MMMMMMMMMMMMMMMMMMMMMMMMMM",
"..........................",
"+@@@@@@@@@@@@@@@@@@@@@@@@@",
"#$%%%%%%%%%%%%%%%%%%%%%%%&",
"#&**********************%&",
"#=-------;>>>>>>>>,------&",
"')!!!!!!!>~~~~~~~~>!{{{{]&",
"'^/////;>>>>>>>>,~>/((((]&",
"'_]]]]]>~~~~~~~~>~>]]]]]]&",
"':<<<<<>~~~~~~~~>[><}}}}}&",
"'|11111>~~>>>>~~>[>111111&",
"'233333>[[>33>[[>4>333335&",
"'677777>[[>77>[[>8>799995&",
"'0aaaaa>44>>>>44>b>a55555&",
"'cddddd>88888888>>eddddd5&",
"'fggggg>bbbbbbbb>gggggggg&",
"'hiiiiie>>>>>>>>ejjjiiiii&",
"'klllllllllllllllllllllll&",
"'mnoooooonooonoooooooolllp",
"'qqqqqrrrrstsuvvvvuuwppppp",
"xxxx'''''''yy#zzzABCCDDDDD",
"EFFFEFFFFEFEFFEFFFFEFEFFFF",
"EFFFEFFFFEFEFFEFFFFEFEFFFF",
"GHHHGHHHHGHGHHGHHHHGHGHHHH",
"IJJJIJJJJIJIJJIJJJJIJIJJJJ",
"KLLLKLLLLKLKLLKLLLLKLKLLLL",
"MMMMMMMMMMMMMMMMMMMMMMMMMM"};
