/* XPM */
static char * titleAP_xpm[] = {
"12 26 16 1",
" 	c None",
".	c #162637",
"+	c #B0D0F1",
"@	c #3E92E8",
"#	c #2E85E0",
"$	c #378AE1",
"%	c #3689E1",
"&	c #3589E1",
"*	c #3488E1",
"=	c #3388E1",
"-	c #3489E1",
";	c #348AE5",
">	c #358BE5",
",	c #338AE3",
"'	c #348BE3",
")	c #21568C",
"............",
"++++++++++++",
"@@@@@@@@@@@@",
"############",
"$$$$$$$$$$$$",
"%%%%%%%%%%%%",
"%%%%%%%%%%%%",
"%%%%%%%%%%%%",
"%%%%%%%%%%%%",
"%%%%%%%%%%%%",
"%%%%%%%%%%%%",
"%%%%%%%%%%%%",
"&&&&&&&&&&&&",
"&&&&&&&&&&&&",
"&&&&&&&&&&&&",
"&&&&&&&&&&&&",
"************",
"************",
"************",
"*&&&&*&*&&&&",
"*&&&&*&*&&&&",
"*&&&&*&*&&&&",
"=----=-=----",
";>>>>;>;>>>>",
",'''',',''''",
"))))))))))))"};
