/* XPM */
static char * titleAS_xpm[] = {
"1 26 13 1",
" 	c None",
".	c #162637",
"+	c #B0D0F1",
"@	c #3E92E8",
"#	c #2E85E0",
"$	c #378AE1",
"%	c #3689E1",
"&	c #3589E1",
"*	c #3488E1",
"=	c #3489E1",
"-	c #358BE5",
";	c #348BE3",
">	c #21568C",
".",
"+",
"@",
"#",
"$",
"%",
"%",
"%",
"%",
"%",
"%",
"%",
"&",
"&",
"&",
"&",
"*",
"*",
"*",
"&",
"&",
"&",
"=",
"-",
";",
">"};
