/* XPM */
static char * icewm_xpm[] = {
"51 25 15 1",
" 	c None",
".	c #0D63A5",
"+	c #0D62A3",
"@	c #FFFFFF",
"#	c #0F63A4",
"$	c #FBFCFD",
"%	c #F8FAFC",
"&	c #F9FBFC",
"*	c #F6F9FB",
"=	c #0E63A3",
"-	c #1165A4",
";	c #1064A4",
">	c #1265A5",
",	c #1768A6",
"'	c #0C61A2",
"............++++++++++++++++++++++++++.............",
"+++++++++++++++++++++++++++++++++++++++++++++++++++",
"+++++++++++++++++++++++++++++++++++++++++++++++++++",
"+++++++++++++++++++++++++++++++++++++++++++++++++++",
"+++++++++++++++++++++++++++++++++++++++++++++++++++",
"+++++++++++++++++++++++++++++++++++++++++++++++++++",
"+++++++++++++++++++++++++++++++++++++++++++++++++++",
"+++++++++++++++++++++++++++++++++++++++++++++++++++",
"++++++++++@+++++++++++@+++++#+@+@$%@@&*@@++++++++++",
"++++++++++&+++++++++++@+++++#+@+@+++@+++@++++++++++",
"++++++++++&+++++++++++@+++++#+@+@+++@+++@++++++++++",
"++++++++++&+++++++++++@+++++#+@+@+++@+++@++++++++++",
"++++++++++%+@@@@+@@@@+@+++@+#+@+@+++@+++@++++++++++",
"++++++++++&+@++=+@++++@+++@+#+@+@+++@+++@++++++++++",
"++++++++++&+@++-+@+#++@+++@+#+@+@+++@+++@++++++++++",
"++++++++++&+@++;+@@@++@+++@+#+@+@+++++++@++++++++++",
"++++++++++&+@++>+@,#++@+++@+#+@+@+++++++@++++++++++",
"++++++++++&+@++++@++++@+++@+++@+@+++++++@++++++++++",
"++++++++++@+@@@@+@@@@+@@@@@@@@@+@+++++++@++++++++++",
"+++++++++++++++++++++++++++++++++++++++++++++++++++",
"+++++++++++++++++++++++++++++++++++++++++++++++++++",
"+++++++++++++++++++++++++++++++++++++++++++++++++++",
"+++++++++++++++++++++++++++++++++++++++++++++++++++",
"+++++++++++++++++++++++++++++++++++++++++++++++++++",
"''''''''''+++++++++++++++++++++++++++++''''''''''''"};
