/* XPM */
static char * taskbuttonminimized_xpm[] = {
"320 32 4 1",
" 	c None",
".	c #0D62A3",
"+	c #0D63A5",
"@	c #0C61A2",
"................................................................................................................................................................................................................................................................................................................................",
"................................................................................................................................................................................................................................................................................................................................",
"................................................................................................................................................................................................................................................................................................................................",
"..++++++++++++++++++++++++++++++++++++++++++++++++++++++++++++++++++++++++++++++++++++++++++++++++++++++++++++++++++++++++++++++++++++++++++++++++++++++++++++++++++++++++++++++++++++++++++++++++++++++++++++++++++++++++++++++++++++++++++++++++++++++++++++++++++++++++++++++++++++++++++++++++++++++++++++++++++++++++++++..",
"................................................................................................................................................................................................................................................................................................................................",
"................................................................................................................................................................................................................................................................................................................................",
"................................................................................................................................................................................................................................................................................................................................",
"................................................................................................................................................................................................................................................................................................................................",
"................................................................................................................................................................................................................................................................................................................................",
"................................................................................................................................................................................................................................................................................................................................",
"................................................................................................................................................................................................................................................................................................................................",
"................................................................................................................................................................................................................................................................................................................................",
"................................................................................................................................................................................................................................................................................................................................",
"................................................................................................................................................................................................................................................................................................................................",
"................................................................................................................................................................................................................................................................................................................................",
"................................................................................................................................................................................................................................................................................................................................",
"................................................................................................................................................................................................................................................................................................................................",
"................................................................................................................................................................................................................................................................................................................................",
"................................................................................................................................................................................................................................................................................................................................",
"................................................................................................................................................................................................................................................................................................................................",
"................................................................................................................................................................................................................................................................................................................................",
"................................................................................................................................................................................................................................................................................................................................",
"................................................................................................................................................................................................................................................................................................................................",
"................................................................................................................................................................................................................................................................................................................................",
"................................................................................................................................................................................................................................................................................................................................",
"................................................................................................................................................................................................................................................................................................................................",
"................................................................................................................................................................................................................................................................................................................................",
"..@@@@@@@@@@@@@@@@@@@@@@@@@@@@@@@@@@@@@@@@@@@@@@@@@@@@@@@@@@@@@@@@@@@@@@@@@@@@@@@@@@@@@@@@@@@@@@@@@@@@@@@@@@@@@@@@@@@@@@@@@@@@@@@@@@@@@@@@@@@@@@@@@@@@@@@@@@@@@@@@@@@@@@@@@@@@@@@@@@@@@@@@@@@@@@@@@@@@@@@@@@@@@@@@@@@@@@@@@@@@@@@@@@@@@@@@@@@@@@@@@@@@@@@@@@@@@@@@@@@@@@@@@@@@@@@@@@@@@@@@@@@@@@@@@@@@@@@@@@@@@@@@@@@@@@@@@@@@..",
"..@@@@@@@@@@@@@@@@@@@@@@@@@@@@@@@@@@@@@@@@@@@@@@@@@@@@@@@@@@@@@@@@@@@@@@@@@@@@@@@@@@@@@@@@@@@@@@@@@@@@@@@@@@@@@@@@@@@@@@@@@@@@@@@@@@@@@@@@@@@@@@@@@@@@@@@@@@@@@@@@@@@@@@@@@@@@@@@@@@@@@@@@@@@@@@@@@@@@@@@@@@@@@@@@@@@@@@@@@@@@@@@@@@@@@@@@@@@@@@@@@@@@@@@@@@@@@@@@@@@@@@@@@@@@@@@@@@@@@@@@@@@@@@@@@@@@@@@@@@@@@@@@@@@@@@@@@@@@..",
"................................................................................................................................................................................................................................................................................................................................",
"................................................................................................................................................................................................................................................................................................................................",
"@@@@@@@@@@@@@@@@@@@@@@@@@@@@@@@@@@@@@@@@@@@@@@@@@@@@@@@@@@@@@@@@@@@@@@@@@@@@@@@@@@@@@@@@@@@@@@@@@@@@@@@@@@@@@@@@@@@@@@@@@@@@@@@@@@@@@@@@@@@@@@@@@@@@@@@@@@@@@@@@@@@@@@@@@@@@@@@@@@@@@@@@@@@@@@@@@@@@@@@@@@@@@@@@@@@@@@@@@@@@@@@@@@@@@@@@@@@@@@@@@@@@@@@@@@@@@@@@@@@@@@@@@@@@@@@@@@@@@@@@@@@@@@@@@@@@@@@@@@@@@@@@@@@@@@@@@@@@@@@@"};
