/* XPM */
static char * taskbuttonactive_xpm[] = {
"320 32 3 1",
" 	c None",
".	c #3188CB",
"+	c #0C61A2",
"................................................................................................................................................................................................................................................................................................................................",
"................................................................................................................................................................................................................................................................................................................................",
"................................................................................................................................................................................................................................................................................................................................",
"................................................................................................................................................................................................................................................................................................................................",
"................................................................................................................................................................................................................................................................................................................................",
"................................................................................................................................................................................................................................................................................................................................",
"................................................................................................................................................................................................................................................................................................................................",
"................................................................................................................................................................................................................................................................................................................................",
"................................................................................................................................................................................................................................................................................................................................",
"................................................................................................................................................................................................................................................................................................................................",
"................................................................................................................................................................................................................................................................................................................................",
"................................................................................................................................................................................................................................................................................................................................",
"................................................................................................................................................................................................................................................................................................................................",
"................................................................................................................................................................................................................................................................................................................................",
"................................................................................................................................................................................................................................................................................................................................",
"................................................................................................................................................................................................................................................................................................................................",
"................................................................................................................................................................................................................................................................................................................................",
"................................................................................................................................................................................................................................................................................................................................",
"................................................................................................................................................................................................................................................................................................................................",
"................................................................................................................................................................................................................................................................................................................................",
"................................................................................................................................................................................................................................................................................................................................",
"................................................................................................................................................................................................................................................................................................................................",
"................................................................................................................................................................................................................................................................................................................................",
"................................................................................................................................................................................................................................................................................................................................",
"................................................................................................................................................................................................................................................................................................................................",
"................................................................................................................................................................................................................................................................................................................................",
"................................................................................................................................................................................................................................................................................................................................",
"................................................................................................................................................................................................................................................................................................................................",
"................................................................................................................................................................................................................................................................................................................................",
"................................................................................................................................................................................................................................................................................................................................",
"................................................................................................................................................................................................................................................................................................................................",
"++++++++++++++++++++++++++++++++++++++++++++++++++++++++++++++++++++++++++++++++++++++++++++++++++++++++++++++++++++++++++++++++++++++++++++++++++++++++++++++++++++++++++++++++++++++++++++++++++++++++++++++++++++++++++++++++++++++++++++++++++++++++++++++++++++++++++++++++++++++++++++++++++++++++++++++++++++++++++++++++"};
