/* XPM */
static char * taskbuttonbg_xpm[] = {
"320 32 4 1",
" 	c None",
".	c #2974AE",
"+	c #2975B0",
"@	c #2974AD",
"................................................................................................................................................................................................................................................................................................................................",
"................................................................................................................................................................................................................................................................................................................................",
"................................................................................................................................................................................................................................................................................................................................",
"..++++++++++++++++++++++++++++++++++++++++++++++++++++++++++++++++++++++++++++++++++++++++++++++++++++++++++++++++++++++++++++++++++++++++++++++++++++++++++++++++++++++++++++++++++++++++++++++++++++++++++++++++++++++++++++++++++++++++++++++++++++++++++++++++++++++++++++++++++++++++++++++++++++++++++++++++++++++++++++..",
"................................................................................................................................................................................................................................................................................................................................",
"................................................................................................................................................................................................................................................................................................................................",
"................................................................................................................................................................................................................................................................................................................................",
"................................................................................................................................................................................................................................................................................................................................",
"................................................................................................................................................................................................................................................................................................................................",
"................................................................................................................................................................................................................................................................................................................................",
"................................................................................................................................................................................................................................................................................................................................",
"................................................................................................................................................................................................................................................................................................................................",
"................................................................................................................................................................................................................................................................................................................................",
"................................................................................................................................................................................................................................................................................................................................",
"................................................................................................................................................................................................................................................................................................................................",
"................................................................................................................................................................................................................................................................................................................................",
"................................................................................................................................................................................................................................................................................................................................",
"................................................................................................................................................................................................................................................................................................................................",
"................................................................................................................................................................................................................................................................................................................................",
"................................................................................................................................................................................................................................................................................................................................",
"................................................................................................................................................................................................................................................................................................................................",
"................................................................................................................................................................................................................................................................................................................................",
"................................................................................................................................................................................................................................................................................................................................",
"................................................................................................................................................................................................................................................................................................................................",
"................................................................................................................................................................................................................................................................................................................................",
"................................................................................................................................................................................................................................................................................................................................",
"................................................................................................................................................................................................................................................................................................................................",
"..@@@@@@@@@@@@@@@@@@@@@@@@@@@@@@@@@@@@@@@@@@@@@@@@@@@@@@@@@@@@@@@@@@@@@@@@@@@@@@@@@@@@@@@@@@@@@@@@@@@@@@@@@@@@@@@@@@@@@@@@@@@@@@@@@@@@@@@@@@@@@@@@@@@@@@@@@@@@@@@@@@@@@@@@@@@@@@@@@@@@@@@@@@@@@@@@@@@@@@@@@@@@@@@@@@@@@@@@@@@@@@@@@@@@@@@@@@@@@@@@@@@@@@@@@@@@@@@@@@@@@@@@@@@@@@@@@@@@@@@@@@@@@@@@@@@@@@@@@@@@@@@@@@@@@@@@@@@@..",
"..@@@@@@@@@@@@@@@@@@@@@@@@@@@@@@@@@@@@@@@@@@@@@@@@@@@@@@@@@@@@@@@@@@@@@@@@@@@@@@@@@@@@@@@@@@@@@@@@@@@@@@@@@@@@@@@@@@@@@@@@@@@@@@@@@@@@@@@@@@@@@@@@@@@@@@@@@@@@@@@@@@@@@@@@@@@@@@@@@@@@@@@@@@@@@@@@@@@@@@@@@@@@@@@@@@@@@@@@@@@@@@@@@@@@@@@@@@@@@@@@@@@@@@@@@@@@@@@@@@@@@@@@@@@@@@@@@@@@@@@@@@@@@@@@@@@@@@@@@@@@@@@@@@@@@@@@@@@@..",
"................................................................................................................................................................................................................................................................................................................................",
"................................................................................................................................................................................................................................................................................................................................",
"@@@@@@@@@@@@@@@@@@@@@@@@@@@@@@@@@@@@@@@@@@@@@@@@@@@@@@@@@@@@@@@@@@@@@@@@@@@@@@@@@@@@@@@@@@@@@@@@@@@@@@@@@@@@@@@@@@@@@@@@@@@@@@@@@@@@@@@@@@@@@@@@@@@@@@@@@@@@@@@@@@@@@@@@@@@@@@@@@@@@@@@@@@@@@@@@@@@@@@@@@@@@@@@@@@@@@@@@@@@@@@@@@@@@@@@@@@@@@@@@@@@@@@@@@@@@@@@@@@@@@@@@@@@@@@@@@@@@@@@@@@@@@@@@@@@@@@@@@@@@@@@@@@@@@@@@@@@@@@@@"};
