/* XPM */
static char * taskbarbg_xpm[] = {
"1 34 5 1",
" 	c None",
".	c #0B5893",
"+	c #0D62A3",
"@	c #0D63A5",
"#	c #0C61A2",
".",
"+",
"+",
"+",
"@",
"+",
"+",
"+",
"+",
"+",
"+",
"+",
"+",
"+",
"+",
"+",
"+",
"+",
"+",
"+",
"+",
"+",
"+",
"+",
"+",
"+",
"+",
"+",
"#",
"#",
"#",
"#",
"+",
"+"};
