/* XPM */
static char * toolbuttonbg_xpm[] = {
"1 32 4 1",
" 	c None",
".	c #0D62A3",
"+	c #0D63A5",
"@	c #0C61A2",
".",
".",
".",
"+",
".",
".",
".",
".",
".",
".",
".",
".",
".",
".",
".",
".",
".",
".",
".",
".",
".",
".",
".",
".",
".",
".",
".",
"@",
"@",
"@",
"@",
"."};
