/* XPM */
static char * workspacebuttonactive_xpm[] = {
"1 32 3 1",
" 	c None",
".	c #0D62A3",
"+	c #247BBD",
".",
".",
"+",
"+",
"+",
"+",
"+",
"+",
"+",
"+",
"+",
"+",
"+",
"+",
"+",
"+",
"+",
"+",
"+",
"+",
"+",
"+",
"+",
"+",
"+",
"+",
"+",
"+",
"+",
"+",
".",
"."};
