/* XPM */
static char * restoreA_xpm[] = {
"13 36 7 1",
" 	c None",
".	c #CECEFF",
"+	c #EFEFEF",
"@	c #313163",
"#	c #A5A5A5",
"$	c #A5A5D6",
"%	c #000000",
".............",
"+++++++++++++",
"+++++++++++++",
"+@@@@@@@@@@@+",
"+@..........+",
"+@.####@##@.+",
"+@.####@##@.+",
"+@.####@##@.+",
"+@.####@##@.+",
"+@.@@@@@##@.+",
"+@.#######@.+",
"+@.#######@.+",
"+@.@@@@@@@@.+",
"+@..........+",
"+++++++++++++",
"+++++++++++++",
"$$$$$$$$$$$$$",
"%%%%%%%%%%%%%",
".............",
"+++++++++++++",
"+++++++++++++",
"+@@@@@@@@@@@+",
"+@....@....@+",
"+@.@..@..@.@+",
"+@..@.@.@..@+",
"+@.........@+",
"+@@@@...@@@@+",
"+@.........@+",
"+@..@.@.@..@+",
"+@.@..@..@.@+",
"+@....@....@+",
"+@@@@@@@@@@@+",
"+++++++++++++",
"+++++++++++++",
"$$$$$$$$$$$$$",
"%%%%%%%%%%%%%"};
