/* XPM */
static char * titleAM_xpm[] = {
"7 18 4 1",
" 	c #CECEFF",
".	c #EFEFEF",
"+	c #A5A5D6",
"@	c #000000",
"       ",
".......",
".......",
".......",
".......",
".......",
".......",
".......",
".......",
".......",
".......",
".......",
".......",
".......",
".......",
".......",
"+++++++",
"@@@@@@@"};
