/* XPM */
static char * titleIJ_xpm[] = {
"7 18 2 1",
" 	c #FFFFFF",
".	c #525252",
"       ",
"       ",
"       ",
"       ",
"       ",
"       ",
"       ",
"       ",
"       ",
"       ",
"       ",
"       ",
"       ",
"       ",
"       ",
"       ",
"       ",
"......."};
