/* XPM */
static char * titleIP_xpm[] = {
"1 18 2 1",
" 	c #FFFFFF",
".	c #525252",
" ",
" ",
" ",
" ",
" ",
" ",
" ",
" ",
" ",
" ",
" ",
" ",
" ",
" ",
" ",
" ",
" ",
"."};
