/* XPM */
static char * titleAJ_xpm[] = {
"7 18 5 1",
" 	c #CECEFF",
".	c #EFEFEF",
"+	c #737373",
"@	c #A5A5D6",
"#	c #000000",
"       ",
" ......",
" ......",
" ++++++",
" ......",
" ++++++",
" ......",
" ++++++",
" ......",
" ++++++",
" ......",
" ++++++",
" ......",
" ++++++",
" ......",
" ......",
"@@@@@@@",
"#######"};
