/* XPM */
static char *dummy[]={
"20 40 3 1",
". c #006dd9",
"a c #104e8b",
"# c #172736",
"...................#",
".aaaaaaaaaaaaaaaaaa#",
".aaaaaaaaaaaaaaaaaa#",
".aaaaaaaaaaaaaaaaaa#",
".aaa...aaaaaaa..#aa#",
".aaa.aa.aaaaa.aa#aa#",
".aaa.aaa.aaa.aaa#aa#",
".aaaa#aaa.a.aaa#aaa#",
".aaaaa#aaa.aaa#aaaa#",
".aaaaaa#aaaaa#aaaaa#",
".aaaaaaa#aaa.aaaaaa#",
".aaaaaa.aaaaa.aaaaa#",
".aaaaa.aaa#aaa.aaaa#",
".aaaa.aaa#a#aaa.aaa#",
".aaa.aaa#aaa#aaa#aa#",
".aaa#aa#aaaaa#aa#aa#",
".aaa###aaaaaaa###aa#",
".aaaaaaaaaaaaaaaaaa#",
".aaaaaaaaaaaaaaaaaa#",
".###################",
"###################.",
"#aaaaaaaaaaaaaaaaaa.",
"#aaaaaaaaaaaaaaaaaa.",
"#aaaaaaaaaaaaaaaaaa.",
"#aaa...aaaaaaa..#aa.",
"#aaa.aa.aaaaa.aa#aa.",
"#aaa.aaa.aaa.aaa#aa.",
"#aaaa#aaa.a.aaa#aaa.",
"#aaaaa#aaa.aaa#aaaa.",
"#aaaaaa#aaaaa#aaaaa.",
"#aaaaaaa#aaa.aaaaaa.",
"#aaaaaa.aaaaa.aaaaa.",
"#aaaaa.aaa#aaa.aaaa.",
"#aaaa.aaa#a#aaa.aaa.",
"#aaa.aaa#aaa#aaa#aa.",
"#aaa#aa#aaaaa#aa#aa.",
"#aaa###aaaaaaa###aa.",
"#aaaaaaaaaaaaaaaaaa.",
"#aaaaaaaaaaaaaaaaaa.",
"#..................."};
