/* XPM */
static char *dummy[]={
"26 26 3 1",
". c #006dd9",
"a c #104e8b",
"# c #172736",
"..........................",
".........................#",
".aaaaaaaaaaaaaaaaaaaaaaa##",
".aaaaaaaaaaaaaaaaaaaaaaa##",
".aaaaaaaaaaaaaaaaaaaaaaa##",
"#####################aaa##",
"...................#.aaa##",
".aaaaaaaaaaaaaaaaaa#.aaa##",
".aaaaaaaaaaaaaaaaaa#.aaa##",
".aaaaaaaaaaaaaaaaaa#.aaa##",
".aaa...aaaaaaa..#aa#.aaa##",
".aaa.aa.aaaaa.aa#aa#.aaa##",
".aaa.aaa.aaa.aaa#aa#.aaa##",
".aaaa#aaa.a.aaa#aaa#.aaa##",
".aaaaa#aaa.aaa#aaaa#.aaa##",
".aaaaaa#aaaaa#aaaaa#.aaa##",
".aaaaaaa#aaa.aaaaaa#.aaa##",
".aaaaaa.aaaaa.aaaaa#.aaa##",
".aaaaa.aaa#aaa.aaaa#.aaa##",
".aaaa.aaa#a#aaa.aaa#.aaa##",
".aaa.aaa#aaa#aaa#aa#.aaa##",
".aaa#aa#aaaaa#aa#aa#.aaa##",
".aaa###aaaaaaa###aa#.aaa##",
".aaaaaaaaaaaaaaaaaa#.aaa##",
".aaaaaaaaaaaaaaaaaa#.aaa##",
".###################.#####"};
