/* XPM */
static char *dummy[]={
"27 27 29 1",
"d c #000000",
"f c #006dd9",
"h c #104e8b",
"g c #172736",
"j c #757575",
"# c #8c8982",
"q c #909090",
"r c #939393",
"v c #9a9a99",
"l c #9b9b9a",
"c c #9e9a91",
"i c #9f9f9d",
"m c #9f9f9f",
"u c #d4d3cf",
"p c #d8d6d1",
"k c #dbd9d4",
"b c #dcdad5",
"y c #dddbd7",
"z c #dfddd8",
". c #efefef",
"o c #f1f0ee",
"t c #f4f4f2",
"w c #f4f4f4",
"A c #f5f5f3",
"x c #f7f7f6",
"s c #fafafa",
"e c #fbfbfa",
"n c #fdfdfd",
"a c #ffffff",
".....#abbbbbbbbbbbcdefggggg",
".....#abbbbbbbbbbbcdeffffff",
".....#abbbbbbbbbbbcdefhhhgg",
".....#abbbbbbbbbbbcdefhhhgg",
".....#accccccccccccdefhhhgg",
".....#ddddddddddddddefhhhgg",
".....#aaaaaaaaaaaaadefhhhgg",
".....#abbbbbbbbbbbcdefhhhgg",
".....#abbbbbbbbbbbcdefhhhgg",
".....#abbbbbbbbbbbcdefhhhgg",
".....#abbbbbbbbbbbcdefhhhgg",
".....#abbijjjjjibbcdefhhhgg",
".....#abbkljjjmnobcdefhhhgg",
".....#abbbpqjrstbbcdefhhhgg",
".....#abbbbuvwxybbcdefhhhgg",
".....#abbbbbzAzbbbcdefhhhgg",
".....#abbbbbbbbbbbcdefhhhgg",
".....#abbbbbbbbbbbcdefhhhgg",
".....#accccccccccccdefhhhgg",
".....#ddddddddddddddefhhhgg",
".....eeeeeeeeeeeeeeeefhhhgg",
"ffffffffffffffffffffffhhhgg",
"gfhhhhhhhhhhhhhhhhhhhhhhhgg",
"gfhhhhhhhhhhhhhhhhhhhhhhhgg",
"gfhhhhhhhhhhhhhhhhhhhhhhhgg",
"gfggggggggggggggggggggggggg",
"gfggggggggggggggggggggggggg"};
