/* XPM */
static char *dummy[]={
"20 40 3 1",
". c #006dd9",
"a c #104e8b",
"# c #172736",
"...................#",
".aaaaaaaaaaaaaaaaaa#",
".aaaaaaaaaaaaaaaaaa#",
".aaaaaaaaaaaaaaaaaa#",
".aaaaaaaaaaaaaaaaaa#",
".aaaa...........aaa#",
".aaaa.aaaaaaaaa#aaa#",
".aaaa.aaaaaaaaa#aaa#",
".aaaa.aaaaaaaaa#aaa#",
".aaaa.aaaaaaaaa#aaa#",
".aaaa.aaaaaaaaa#aaa#",
".aaaa.aaaaaaaaa#aaa#",
".aaaa.aaaaaaaaa#aaa#",
".aaaa.aaaaaaaaa#aaa#",
".aaaa.aaaaaaaaa#aaa#",
".aaaa###########aaa#",
".aaaaaaaaaaaaaaaaaa#",
".aaaaaaaaaaaaaaaaaa#",
".aaaaaaaaaaaaaaaaaa#",
".###################",
"###################.",
"#aaaaaaaaaaaaaaaaaa.",
"#aaaaaaaaaaaaaaaaaa.",
"#aaaaaaaaaaaaaaaaaa.",
"#aaaaaaaaaaaaaaaaaa.",
"#aaaa...........aaa.",
"#aaaa.aaaaaaaaa#aaa.",
"#aaaa.aaaaaaaaa#aaa.",
"#aaaa.aaaaaaaaa#aaa.",
"#aaaa.aaaaaaaaa#aaa.",
"#aaaa.aaaaaaaaa#aaa.",
"#aaaa.aaaaaaaaa#aaa.",
"#aaaa.aaaaaaaaa#aaa.",
"#aaaa.aaaaaaaaa#aaa.",
"#aaaa.aaaaaaaaa#aaa.",
"#aaaa###########aaa.",
"#aaaaaaaaaaaaaaaaaa.",
"#aaaaaaaaaaaaaaaaaa.",
"#aaaaaaaaaaaaaaaaaa.",
"#..................."};
