/* XPM */
static char *dummy[]={
"20 40 3 1",
". c #006dd9",
"a c #104e8b",
"# c #172736",
"...................#",
".aaaaaaaaaaaaaaaaaa#",
".aaaaaaaaaaaaaaaaaa#",
".aaaaaaaaaaaaaaaaaa#",
".aaaaaaaaaaaaaaaaaa#",
".aaaaaaaaaaaaaaaaaa#",
".aaaaaaaaaaaaaaaaaa#",
".aaa...........#aaa#",
".aaa.aaaaaaaaaa#aaa#",
".aaa.aaaaaaaaaa#aaa#",
".aaa.aaaaaaaaaa#aaa#",
".aaa.aaaaaaaaaa#aaa#",
".aaa.###########aaa#",
".aaaaaaaaaaaaaaaaaa#",
".aaaaaaaaaaaaaaaaaa#",
".aaaaaaaaaaaaaaaaaa#",
".aaaaaaaaaaaaaaaaaa#",
".aaaaaaaaaaaaaaaaaa#",
".aaaaaaaaaaaaaaaaaa#",
".###################",
"###################.",
"#aaaaaaaaaaaaaaaaaa.",
"#aaaaaaaaaaaaaaaaaa.",
"#aaaaaaaaaaaaaaaaaa.",
"#aaaaaaaaaaaaaaaaaa.",
"#aaaaaaaaaaaaaaaaaa.",
"#aaaaaaaaaaaaaaaaaa.",
"#aaa...........#aaa.",
"#aaa.aaaaaaaaaa#aaa.",
"#aaa.aaaaaaaaaa#aaa.",
"#aaa.aaaaaaaaaa#aaa.",
"#aaa.aaaaaaaaaa#aaa.",
"#aaa.###########aaa.",
"#aaaaaaaaaaaaaaaaaa.",
"#aaaaaaaaaaaaaaaaaa.",
"#aaaaaaaaaaaaaaaaaa.",
"#aaaaaaaaaaaaaaaaaa.",
"#aaaaaaaaaaaaaaaaaa.",
"#aaaaaaaaaaaaaaaaaa.",
"#..................."};
