/* XPM */
static char *dummy[]={
"20 40 3 1",
". c #006dd9",
"a c #104e8b",
"# c #172736",
"...................#",
".aaaaaaaaaaaaaaaaaa#",
".aaaaaaaaaaaaaaaaaa#",
".aaaaaaaaaaaaaaaaaa#",
".aaaaaaaaaaaaaaaaaa#",
".aaaaaaaaa.aaaaaaaa#",
".aaaaaaaa.a#aaaaaaa#",
".aaaaaaaa.a#aaaaaaa#",
".aaaaaaa.aaa#aaaaaa#",
".aaaaaaa.aaa#aaaaaa#",
".aaaaaa.aaaaa#aaaaa#",
".aaaaaa.aaaaa#aaaaa#",
".aaaaa.aaaaaaa#aaaa#",
".aaaaa.aaaaaaa#aaaa#",
".aaaa.aaaaaaaaa#aaa#",
".aaaa.##########aaa#",
".aaaaaaaaaaaaaaaaaa#",
".aaaaaaaaaaaaaaaaaa#",
".aaaaaaaaaaaaaaaaaa#",
".###################",
"###################.",
"#aaaaaaaaaaaaaaaaaa.",
"#aaaaaaaaaaaaaaaaaa.",
"#aaaaaaaaaaaaaaaaaa.",
"#aaaaaaaaaaaaaaaaaa.",
"#aaaaaaaaa.aaaaaaaa.",
"#aaaaaaaa.a#aaaaaaa.",
"#aaaaaaaa.a#aaaaaaa.",
"#aaaaaaa.aaa#aaaaaa.",
"#aaaaaaa.aaa#aaaaaa.",
"#aaaaaa.aaaaa#aaaaa.",
"#aaaaaa.aaaaa#aaaaa.",
"#aaaaa.aaaaaaa#aaaa.",
"#aaaaa.aaaaaaa#aaaa.",
"#aaaa.aaaaaaaaa#aaa.",
"#aaaa.##########aaa.",
"#aaaaaaaaaaaaaaaaaa.",
"#aaaaaaaaaaaaaaaaaa.",
"#aaaaaaaaaaaaaaaaaa.",
"#..................."};
