/* XPM */
static char * closeA_xpm[] = {
"13 36 6 1",
" 	c #CECEFF",
".	c #EFEFEF",
"+	c #313163",
"@	c #A5A5A5",
"#	c #A5A5D6",
"$	c #000000",
"             ",
".............",
".............",
".+++++++++++.",
".+          .",
".+ @@@@@@@+ .",
".+ @@@@@@@+ .",
".+ @@@@@@@+ .",
".+ @@@@@@@+ .",
".+ @@@@@@@+ .",
".+ @@@@@@@+ .",
".+ @@@@@@@+ .",
".+ ++++++++ .",
".+          .",
".............",
".............",
"#############",
"$$$$$$$$$$$$$",
"             ",
".............",
".............",
".+++++++++++.",
".+    +    +.",
".+ +  +  + +.",
".+  + + +  +.",
".+    @    +.",
".++++@@@++++.",
".+    @    +.",
".+  + + +  +.",
".+ +  +  + +.",
".+    +    +.",
".+++++++++++.",
".............",
".............",
"#############",
"$$$$$$$$$$$$$"};
