/* XPM */
static char * closeI_xpm[] = {
"13 36 2 1",
" 	c #FFFFFF",
".	c #525252",
"             ",
"             ",
"             ",
"             ",
"             ",
"             ",
"             ",
"             ",
"             ",
"             ",
"             ",
"             ",
"             ",
"             ",
"             ",
"             ",
"             ",
".............",
"             ",
"             ",
"             ",
"             ",
"             ",
"             ",
"             ",
"             ",
"             ",
"             ",
"             ",
"             ",
"             ",
"             ",
"             ",
"             ",
"             ",
"............."};
