/* XPM */
static char * titleIQ_xpm[] = {
"7 18 2 1",
" 	c #FFFFFF",
".	c #525252",
"       ",
"       ",
"       ",
"       ",
"       ",
"       ",
"       ",
"       ",
"       ",
"       ",
"       ",
"       ",
"       ",
"       ",
"       ",
"       ",
"       ",
"......."};
