/* XPM */
static char * titleAQ_xpm[] = {
"7 18 5 1",
" 	c #CECEFF",
".	c #A5A5D6",
"+	c #EFEFEF",
"@	c #737373",
"#	c #000000",
"      .",
"++++++.",
"++++++.",
"@@@@@@.",
"++++++.",
"@@@@@@.",
"++++++.",
"@@@@@@.",
"++++++.",
"@@@@@@.",
"++++++.",
"@@@@@@.",
"++++++.",
"@@@@@@.",
"++++++.",
"++++++.",
".......",
"#######"};
